<svg width="191" height="169" viewBox="0 0 191 169" fill="none" xmlns="http://www.w3.org/2000/svg">
<mask id="mask0_3086_5772" style="mask-type:luminance" maskUnits="userSpaceOnUse" x="0" y="0" width="191" height="165">
<path d="M190.757 0.519531H0.757812V164.556H190.757V0.519531Z" fill="white"/>
</mask>
<g mask="url(#mask0_3086_5772)">
<path fill-rule="evenodd" clip-rule="evenodd" d="M136.721 161.198C174.27 151.84 186.744 123.497 189.883 101.283C192.729 81.1446 188.598 69.2196 172.286 67.3922C155.976 65.5649 160.052 54.4098 161.074 44.6653C162.091 34.9229 164.4 24.9722 156.8 12.8738C147.627 -1.7429 122.875 -7.41805 104.015 18.7662C85.1563 44.9526 70.2333 42.3421 52.6384 39.3959C43.5015 37.8669 24.7959 31.7354 15.3362 49.7108C-3.67107 85.8106 51.2281 141.068 51.2281 141.068C51.2281 141.068 80.701 175.16 136.721 161.198Z" fill="#FCD0D0"/>
<path fill-rule="evenodd" clip-rule="evenodd" d="M60.9472 117.729L50.2461 115.804L50.4317 115.141L61.9059 116.479L60.9472 117.729Z" fill="#D2EEF2"/>
<path d="M81.4961 19.3941L90.223 19.9584M91.518 20.2974C91.3652 21.4456 90.9699 22.3402 90.6292 22.2986C90.2885 22.2527 90.1356 21.2838 90.2863 20.1333C90.437 18.9873 90.8345 18.0905 91.1752 18.1365C91.5158 18.1802 91.6687 19.1491 91.518 20.2974Z" stroke="#FF0000" stroke-width="0.25"/>
<path fill-rule="evenodd" clip-rule="evenodd" d="M85.0859 35.9199L85.1127 35.9599C85.1127 35.9599 85.1126 35.9465 85.0859 35.9199Z" fill="#EDB9B6"/>
</g>
<g clip-path="url(#clip0_3086_5772)">
<path d="M146.15 79.6832C146.15 79.6832 147.607 78.2156 147.607 71.4124C147.607 61.5389 143.96 54.4209 143.96 54.4209H131.396C131.396 54.4209 127.749 61.5386 127.749 71.4124C127.749 78.2153 129.205 79.6832 129.205 79.6832L117.992 88.6115C116.183 90.052 115.129 92.2382 115.129 94.5508V164.294C115.129 166.776 117.141 168.789 119.624 168.789H155.732C158.214 168.789 160.227 166.776 160.227 164.294V94.5508C160.227 92.2382 159.173 90.052 157.364 88.6115L146.15 79.6832Z" fill="#FD9727"/>
<path d="M157.363 88.6115L146.15 79.6832C146.15 79.6832 147.606 78.2156 147.606 71.4124C147.606 61.5389 143.959 54.4209 143.959 54.4209H134.535C134.222 59.6757 133.768 66.0848 133.375 71.4004C132.885 78.0291 135.704 84.4709 140.904 88.6112C142.713 90.0517 143.767 92.2379 143.767 94.5505V164.293C143.767 166.776 141.754 168.788 139.272 168.788H155.731C158.214 168.788 160.226 166.776 160.226 164.293V94.5508C160.226 92.2382 159.172 90.052 157.363 88.6115Z" fill="#E57F23"/>
<path d="M160.228 99.0645H115.129V159.351H160.228V99.0645Z" fill="#4A4256"/>
<path d="M147.601 70.7277C147.438 61.2121 143.961 54.4209 143.961 54.4209H131.397C131.397 54.4209 127.92 61.2124 127.758 70.7277H147.601Z" fill="#4A4256"/>
<path d="M75.5327 81.1111V66.2354H64.1536V81.1111C64.1536 85.7365 60.7064 89.6365 56.1161 90.2043C51.4363 90.7831 47.9219 94.7592 47.9219 99.4746V164.673C47.9219 166.946 49.7643 168.788 52.0371 168.788H87.6489C89.9216 168.788 91.7641 166.946 91.7641 164.673V99.4746C91.7641 94.7592 88.2497 90.7831 83.5699 90.2043C78.9799 89.6365 75.5327 85.7365 75.5327 81.1111Z" fill="#77D057"/>
<path d="M83.5703 90.2043C78.98 89.6365 75.5328 85.7365 75.5328 81.1111V66.2354H67.5488V164.673C67.5488 166.946 65.7064 168.788 63.4336 168.788H87.6493C89.922 168.788 91.7645 166.946 91.7645 164.673V99.4746C91.7645 94.7592 88.2501 90.7831 83.5703 90.2043Z" fill="#68B543"/>
<path d="M75.9661 79.8358H63.7204C63.0852 79.8358 62.5703 79.321 62.5703 78.6857V67.3855C62.5703 66.7502 63.0852 66.2354 63.7204 66.2354H75.9661C76.6014 66.2354 77.1163 66.7502 77.1163 67.3855V78.6857C77.1163 79.321 76.6014 79.8358 75.9661 79.8358Z" fill="#602952"/>
<path d="M56.1161 90.2043C51.4363 90.7832 47.9219 94.7592 47.9219 99.4747V164.673C47.9219 166.946 49.7643 168.788 52.0371 168.788H87.6489C89.9216 168.788 91.7641 166.946 91.7641 164.673V99.4747C91.7641 94.7592 88.2497 90.7832 83.5699 90.2043C82.3353 90.0517 57.351 90.0517 56.1161 90.2043Z" fill="#306318"/>
<path d="M91.409 96.917C91.2546 96.3738 91.052 95.8502 90.8061 95.3508C90.6831 95.1011 90.5494 94.8576 90.4053 94.6211C89.3061 92.8155 87.6077 91.4063 85.5659 90.6781C84.9309 90.4515 84.2638 90.2895 83.57 90.2036C82.88 90.1182 74.7803 90.0805 67.5485 90.0904V164.673C67.5485 166.945 65.7061 168.788 63.4336 168.788H87.649C88.6433 168.788 89.5554 168.435 90.2667 167.848C90.978 167.261 91.4888 166.44 91.6809 165.502C91.7358 165.234 91.7645 164.957 91.7645 164.673V99.4739C91.7642 98.5898 91.6405 97.7318 91.409 96.917Z" fill="#2C5114"/>
<path d="M85.5251 150.349V104.453C85.5251 102.828 84.2084 101.512 82.584 101.512H57.1013C55.4769 101.512 54.1602 102.828 54.1602 104.453V150.349C54.1602 151.517 55.1068 152.464 56.2745 152.464H83.4105C84.5785 152.463 85.5251 151.517 85.5251 150.349Z" fill="#E9EAEB"/>
<path d="M67.5472 152.463H83.4096C84.5773 152.463 85.5239 151.517 85.5239 150.349V104.453C85.5239 102.828 84.2072 101.512 82.5828 101.512H67.5469L67.5472 152.463Z" fill="#B6D1C6"/>
<path d="M69.8408 122.848C74.0375 122.848 77.4395 119.446 77.4395 115.249C77.4395 111.052 74.0375 107.65 69.8408 107.65C65.6442 107.65 62.2422 111.052 62.2422 115.249C62.2422 119.446 65.6442 122.848 69.8408 122.848Z" fill="#602952"/>
<path d="M67.5469 122.495C68.2708 122.724 69.0414 122.849 69.8413 122.849C74.0378 122.849 77.44 119.447 77.44 115.25C77.44 111.054 74.0381 107.651 69.8413 107.651C69.0414 107.651 68.271 107.776 67.5469 108.005V122.495Z" fill="#512047"/>
<path d="M76.1558 147.729H63.5259C62.2971 147.729 61.3008 146.732 61.3008 145.503C61.3008 144.275 62.2971 143.278 63.5259 143.278H76.1558C77.3845 143.278 78.3809 144.275 78.3809 145.503C78.3809 146.732 77.3848 147.729 76.1558 147.729Z" fill="white"/>
<path d="M85.5243 129.083H54.1602V137.061H85.5243V129.083Z" fill="#FC502A"/>
<path d="M85.5278 129.083H67.5508V137.061H85.5278V129.083Z" fill="#E60D28"/>
<path d="M122.207 156.745C121.464 156.207 121.074 155.304 121.09 154.387L122.556 70.0291C122.609 68.729 122.126 67.4639 121.22 66.5304L112.618 57.6758C111.345 56.3654 110.633 54.6101 110.633 52.7832V19.1074H103.183H95.7322V52.7835C95.7322 54.6104 95.02 56.3654 93.7471 57.6761L85.1456 66.5307C84.239 67.4642 83.7558 68.7292 83.8093 70.0294L85.2754 154.388C85.2915 155.305 84.9015 156.207 84.1586 156.745C83.6546 157.111 83.3339 157.71 83.3523 158.385L83.5488 165.651C83.5958 167.398 85.0252 168.788 86.7717 168.788H103.183H119.594C121.34 168.788 122.769 167.397 122.816 165.651L123.013 158.385C123.031 157.71 122.711 157.11 122.207 156.745Z" fill="#CDEAE0"/>
<path d="M122.209 156.745C121.466 156.207 121.076 155.304 121.092 154.387L122.558 70.0291C122.612 68.729 122.128 67.4639 121.222 66.5304L112.62 57.6758C111.347 56.3652 110.635 54.6101 110.635 52.7832V19.1074H103.185H95.7344V51.9196C95.7344 52.4827 95.9034 53.0326 96.2191 53.4986L105.052 66.5304C105.959 67.4639 106.442 68.729 106.389 70.0291L104.923 154.387C104.907 155.304 105.297 156.207 106.039 156.745C106.543 157.11 106.864 157.71 106.846 158.385L106.649 165.651C106.602 167.397 105.173 168.788 103.426 168.788H119.596C121.343 168.788 122.772 167.397 122.819 165.651L123.015 158.385C123.034 157.71 122.713 157.11 122.209 156.745Z" fill="#B6D1C6"/>
<path d="M110.201 48.1043H96.1653C95.485 48.1043 94.9336 47.5529 94.9336 46.8726V20.3333C94.9336 19.6529 95.485 19.1016 96.1653 19.1016H110.201C110.882 19.1016 111.433 19.6529 111.433 20.3333V46.8726C111.433 47.5529 110.881 48.1043 110.201 48.1043Z" fill="#E60D28"/>
<path d="M92.8897 85.8514C99.4953 81.5105 106.871 81.5105 113.48 85.8599C114.096 86.2651 114.918 85.8458 114.949 85.1091L115.125 80.8164C115.187 79.3248 114.317 77.9484 112.941 77.3681C106.611 74.698 99.7651 74.6944 93.4315 77.361C92.0548 77.9408 91.1838 79.3175 91.2452 80.8103L91.4218 85.1C91.4525 85.8368 92.274 86.256 92.8897 85.8514Z" fill="#FC502A"/>
<path d="M111.616 145.731H94.7486C93.5198 145.731 92.5234 144.734 92.5234 143.505C92.5234 142.277 93.5198 141.28 94.7486 141.28H111.616C112.845 141.28 113.841 142.277 113.841 143.505C113.841 144.734 112.845 145.731 111.616 145.731Z" fill="white"/>
<path d="M111.616 152.708H94.7486C93.5198 152.708 92.5234 151.712 92.5234 150.483C92.5234 149.254 93.5198 148.258 94.7486 148.258H111.616C112.845 148.258 113.841 149.254 113.841 150.483C113.841 151.712 112.845 152.708 111.616 152.708Z" fill="white"/>
<path d="M111.781 113.987H94.5872C93.7996 113.987 93.1573 113.357 93.143 112.569L92.8948 99.0424C92.8799 98.2344 93.531 97.5713 94.339 97.5713H112.029C112.837 97.5713 113.488 98.2344 113.473 99.0424L113.225 112.569C113.211 113.356 112.568 113.987 111.781 113.987Z" fill="#FC502A"/>
<path d="M111.434 24.7646H94.9336V29.2149H111.434V24.7646Z" fill="#E9EAEB"/>
<path d="M160.225 99.0645H143.766V159.351H160.225V99.0645Z" fill="#352F3F"/>
<path d="M147.881 115.911C140.997 112.839 134.369 112.832 127.468 115.911C126.653 116.275 125.694 115.961 125.239 115.193C124.667 114.23 124.096 113.266 123.525 112.302C122.989 111.399 123.356 110.231 124.309 109.79C133.187 105.681 142.158 105.68 151.04 109.79C151.994 110.231 152.36 111.399 151.825 112.302C151.253 113.266 150.682 114.229 150.111 115.193C149.656 115.961 148.697 116.274 147.881 115.911Z" fill="#E9EAEB"/>
<path d="M137.674 138.59C143.884 138.59 148.918 135.139 148.918 130.881C148.918 126.624 143.884 123.173 137.674 123.173C131.464 123.173 126.43 126.624 126.43 130.881C126.43 135.139 131.464 138.59 137.674 138.59Z" fill="#E9EAEB"/>
<path d="M149.342 150.74H126.014C124.785 150.74 123.789 149.744 123.789 148.515C123.789 147.286 124.785 146.29 126.014 146.29H149.342C150.571 146.29 151.567 147.286 151.567 148.515C151.567 149.744 150.571 150.74 149.342 150.74Z" fill="white"/>
<path d="M143.766 124.403V137.361C146.866 135.988 148.92 133.6 148.92 130.882C148.92 128.164 146.866 125.776 143.766 124.403Z" fill="#B6D1C6"/>
<path d="M151.042 109.79C148.622 108.67 146.195 107.858 143.766 107.349V114.435C145.13 114.804 146.501 115.295 147.882 115.911C148.698 116.275 149.657 115.961 150.112 115.193C150.683 114.23 151.254 113.266 151.826 112.302C152.362 111.399 151.995 110.232 151.042 109.79Z" fill="#B6D1C6"/>
<path d="M147.599 70.728C147.452 62.1076 144.585 55.7228 144.047 54.5981C144.042 54.5884 144.039 54.582 144.035 54.5729C144.018 54.5376 144.004 54.5086 143.992 54.4858C143.973 54.4455 143.96 54.4209 143.96 54.4209H134.536C134.236 59.4568 133.807 65.5501 133.426 70.7277L147.599 70.728Z" fill="#352F3F"/>
<path d="M145.239 56.5656H130.11C129.441 56.5656 128.898 56.023 128.898 55.3538V42.1161C128.898 41.4469 129.441 40.9043 130.11 40.9043H145.239C145.908 40.9043 146.451 41.4469 146.451 42.1161V55.3538C146.451 56.023 145.908 56.5656 145.239 56.5656Z" fill="#4A4256"/>
<path d="M146.452 46.5537H128.898V50.6789H146.452V46.5537Z" fill="#E9EAEB"/>
<path d="M112.03 97.5713H105.91L105.625 113.987H111.782C112.57 113.987 113.212 113.356 113.226 112.569L113.475 99.0421C113.489 98.2344 112.838 97.5713 112.03 97.5713Z" fill="#E60D28"/>
<path d="M112.939 77.368C110.77 76.4529 108.54 75.8589 106.291 75.5703L106.164 82.8646C108.653 83.3078 111.115 84.3039 113.478 85.8595C114.094 86.2647 114.916 85.8455 114.946 85.1088L115.123 80.8161C115.185 79.3245 114.315 77.9483 112.939 77.368Z" fill="#E60D28"/>
</g>
<defs>
<clipPath id="clip0_3086_5772">
<rect width="149.687" height="149.687" fill="white" transform="translate(29.2305 19.1016)"/>
</clipPath>
</defs>
</svg>
