<svg width="114" height="35" viewBox="0 0 114 35" fill="none" xmlns="http://www.w3.org/2000/svg">
<path d="M113.246 30.3724C113.246 30.7975 113.162 31.2185 112.999 31.6112C112.837 32.0039 112.598 32.3607 112.297 32.6612C111.996 32.9616 111.639 33.1998 111.246 33.3622C110.853 33.5246 110.432 33.608 110.007 33.6075H3.99749C3.13828 33.6084 2.31389 33.2681 1.70563 32.6614C1.09736 32.0547 0.755026 31.2314 0.753906 30.3724V4.57333C0.755025 3.71396 1.09723 2.89016 1.70537 2.28281C2.31352 1.67546 3.13789 1.33421 3.99749 1.33398H110.006C110.431 1.33398 110.853 1.41778 111.246 1.58058C111.639 1.74338 111.996 1.98201 112.297 2.28282C112.598 2.58363 112.836 2.94074 112.999 3.33375C113.162 3.72676 113.245 4.14797 113.245 4.57333L113.246 30.3724Z" fill="white"/>
<path d="M110.005 34.3599H3.99555C2.9371 34.3597 1.92197 33.9397 1.1729 33.1921C0.423834 32.4445 0.00201394 31.4304 0 30.3722L0 4.57399C0.00156582 3.5153 0.423108 2.50045 1.17215 1.75208C1.9212 1.00371 2.93658 0.582925 3.99555 0.582031L110.004 0.582031C111.063 0.583371 112.078 1.0043 112.827 1.75257C113.576 2.50085 113.997 3.51543 113.999 4.57399V30.3722C114.001 32.5717 112.206 34.3599 110.005 34.3599Z" fill="#A6A6A6"/>
<path d="M113.246 30.3724C113.246 30.7975 113.162 31.2185 112.999 31.6112C112.837 32.0039 112.598 32.3607 112.297 32.6612C111.996 32.9616 111.639 33.1998 111.246 33.3622C110.853 33.5246 110.432 33.608 110.007 33.6075H3.99749C3.13828 33.6084 2.31389 33.2681 1.70563 32.6614C1.09736 32.0547 0.755026 31.2314 0.753906 30.3724V4.57333C0.755025 3.71396 1.09723 2.89016 1.70537 2.28281C2.31352 1.67546 3.13789 1.33421 3.99749 1.33398H110.006C110.431 1.33398 110.853 1.41778 111.246 1.58058C111.639 1.74338 111.996 1.98201 112.297 2.28282C112.598 2.58363 112.836 2.94074 112.999 3.33375C113.162 3.72676 113.245 4.14797 113.245 4.57333L113.246 30.3724Z" fill="black"/>
<path d="M25.4559 17.2938C25.4314 14.5714 27.6856 13.2469 27.7887 13.1852C26.5121 11.3244 24.5333 11.0702 23.8379 11.0499C22.176 10.875 20.5639 12.0441 19.7173 12.0441C18.8538 12.0441 17.5502 11.0668 16.1451 11.0955C14.337 11.1234 12.6455 12.1699 11.7178 13.7951C9.80324 17.1088 11.2311 21.9784 13.0654 24.6568C13.983 25.9695 15.0552 27.4333 16.4585 27.3818C17.8315 27.326 18.3444 26.5075 20.0012 26.5075C21.6429 26.5075 22.1245 27.3818 23.5557 27.3488C25.0292 27.326 25.957 26.0311 26.8424 24.7075C27.9028 23.2048 28.3286 21.7233 28.3455 21.6472C28.3117 21.6354 25.4847 20.5559 25.4559 17.2938ZM22.7522 9.28788C23.4907 8.36465 23.9959 7.10861 23.8557 5.83398C22.7869 5.88129 21.4502 6.57308 20.6805 7.47604C19.9995 8.27173 19.3912 9.57592 19.5484 10.8024C20.749 10.8919 21.9817 10.1968 22.7522 9.28788Z" fill="white"/>
<path d="M110.004 0.582031H53.2227L75.4631 34.3599H110.004C111.063 34.359 112.078 33.9385 112.827 33.1905C113.576 32.4425 113.998 31.4281 114 30.3697V4.57399C113.998 3.51537 113.577 2.50065 112.828 1.75233C112.079 1.00401 111.063 0.583148 110.004 0.582031Z" fill="url(#paint0_linear_1987_2589)"/>
<path d="M45.3441 27.1906H43.4253L42.3742 23.8888H38.7209L37.7196 27.1906H35.8516L39.472 15.9496H41.7076L45.3441 27.1906ZM42.0574 22.5035L41.1069 19.5682C41.0063 19.2684 40.8171 18.5622 40.5399 17.4506H40.5061C40.3946 17.9287 40.2163 18.6348 39.9722 19.5682L39.0377 22.5035H42.0574ZM54.6363 23.0382C54.6363 24.4167 54.262 25.5063 53.5126 26.3062C52.8417 27.0183 52.0078 27.3739 51.0134 27.3739C49.9395 27.3739 49.1672 26.9913 48.6983 26.2243V30.4773H46.897V21.7492C46.897 20.8834 46.8742 19.9956 46.8302 19.0851H48.4144L48.515 20.3698H48.5488C49.1495 19.4018 50.0612 18.9178 51.2846 18.9178C52.241 18.9178 53.0394 19.2954 53.6782 20.0514C54.3161 20.809 54.6363 21.8041 54.6363 23.0382ZM52.8012 23.104C52.8012 22.3151 52.6237 21.6647 52.2672 21.152C51.8777 20.619 51.3547 20.3521 50.6991 20.3521C50.2546 20.3521 49.8508 20.5007 49.49 20.7938C49.1284 21.0895 48.8918 21.4755 48.7811 21.9536C48.7317 22.1324 48.7036 22.3164 48.6975 22.5018V23.8541C48.6975 24.4429 48.8783 24.9404 49.2399 25.3475C49.6015 25.753 50.0713 25.9565 50.6492 25.9565C51.3277 25.9565 51.8557 25.6938 52.2334 25.1727C52.6119 24.6498 52.8012 23.9605 52.8012 23.104ZM63.9615 23.0382C63.9615 24.4167 63.5872 25.5063 62.8378 26.3062C62.1661 27.0183 61.333 27.3739 60.3377 27.3739C59.2638 27.3739 58.4916 26.9913 58.0227 26.2243V30.4773H56.2213V21.7492C56.2213 20.8834 56.1985 19.9956 56.1546 19.0851H57.7388L57.8393 20.3698H57.8731C58.473 19.4018 59.3847 18.9178 60.6089 18.9178C61.5645 18.9178 62.363 19.2954 63.0034 20.0514C63.6404 20.809 63.9615 21.8041 63.9615 23.0382ZM62.1255 23.104C62.1255 22.3151 61.9473 21.6647 61.5907 21.152C61.2012 20.619 60.6799 20.3521 60.0243 20.3521C59.5798 20.3521 59.176 20.5007 58.8135 20.7938C58.4519 21.0895 58.2162 21.4755 58.1055 21.9536C58.0506 22.1766 58.021 22.3582 58.021 22.5018V23.8541C58.021 24.4429 58.2026 24.9404 58.5626 25.3475C58.9242 25.7521 59.394 25.9565 59.9736 25.9565C60.6529 25.9565 61.1809 25.6938 61.5578 25.1727C61.9363 24.6498 62.1255 23.9605 62.1255 23.104ZM74.3876 24.0374C74.3876 24.9944 74.053 25.7724 73.3881 26.373C72.6564 27.0284 71.6349 27.357 70.3253 27.357C69.1154 27.357 68.1455 27.1239 67.4138 26.6568L67.8303 25.1558C68.6203 25.6237 69.488 25.8569 70.4326 25.8569C71.1119 25.8569 71.64 25.7031 72.0168 25.3982C72.3945 25.0924 72.5854 24.6836 72.5854 24.1734C72.5854 23.7164 72.4274 23.3338 72.1174 23.0221C71.8056 22.7113 71.2902 22.4215 70.5661 22.1555C68.5975 21.4214 67.6123 20.3479 67.6123 18.9355C67.6123 18.0132 67.9604 17.258 68.6549 16.6676C69.3495 16.078 70.2704 15.7832 71.4161 15.7832C72.4393 15.7832 73.2918 15.9614 73.9685 16.317L73.5165 17.7851C72.8795 17.4405 72.1605 17.2681 71.3561 17.2681C70.7207 17.2681 70.2222 17.4244 69.8657 17.7353C69.5658 18.0132 69.4137 18.3519 69.4137 18.7539C69.4137 19.1974 69.5869 19.5657 69.9316 19.8546C70.2307 20.1206 70.7765 20.4104 71.5656 20.7212C72.5339 21.1114 73.2453 21.5659 73.7007 22.0879C74.1595 22.6099 74.3876 23.2612 74.3876 24.0374ZM80.3586 20.4365H78.373V24.3719C78.373 25.3729 78.7228 25.8721 79.4241 25.8721C79.746 25.8721 80.013 25.845 80.2242 25.7884L80.2741 27.156C79.9192 27.2886 79.452 27.3553 78.8732 27.3553C78.1618 27.3553 77.6059 27.1382 77.2045 26.7041C76.8049 26.2699 76.6038 25.5426 76.6038 24.5189V20.4332H75.4209V19.0817H76.6038V17.5976L78.373 17.0637V19.0817H80.3586V20.4365ZM89.2993 23.0711C89.2993 24.317 88.9428 25.3399 88.2314 26.1398C87.487 26.9634 86.4968 27.3739 85.2624 27.3739C84.0711 27.3739 83.1239 26.9794 82.4176 26.1913C81.7112 25.4016 81.3581 24.4065 81.3581 23.2063C81.3581 21.9502 81.7231 20.9214 82.4505 20.1215C83.1797 19.3207 84.1615 18.9203 85.3959 18.9203C86.5855 18.9203 87.5411 19.3157 88.2643 20.1046C88.9554 20.8699 89.2993 21.8581 89.2993 23.0711ZM87.4321 23.1125C87.4321 22.37 87.2716 21.7331 86.9496 21.2001C86.572 20.5565 86.0312 20.2347 85.3308 20.2347C84.6093 20.2347 84.0559 20.5565 83.679 21.2001C83.3563 21.7331 83.1957 22.381 83.1957 23.1463C83.1957 23.8896 83.3563 24.5282 83.679 25.0595C84.0685 25.7031 84.6118 26.0249 85.3156 26.0249C86.0042 26.0249 86.5441 25.6964 86.9344 25.0434C87.2656 24.4978 87.4321 23.8567 87.4321 23.1125ZM95.157 20.6688C94.9697 20.635 94.7796 20.6183 94.5893 20.619C93.9556 20.619 93.4655 20.8572 93.1208 21.337C92.8217 21.7593 92.6713 22.2932 92.6713 22.9376V27.1906H90.87V21.6377C90.8716 20.7868 90.8541 19.936 90.8176 19.0859H92.3866L92.4525 20.6367H92.5024C92.6933 20.1037 92.9924 19.6738 93.403 19.352C93.7789 19.0708 94.2356 18.9185 94.705 18.9178C94.8715 18.9178 95.0219 18.9296 95.1554 18.9508L95.157 20.6688ZM103.213 22.7543C103.218 23.0281 103.196 23.3017 103.147 23.5712H97.7433C97.7636 24.3719 98.0255 24.9851 98.5274 25.4075C98.9828 25.7842 99.5717 25.9734 100.295 25.9734C101.095 25.9734 101.825 25.8467 102.482 25.5908L102.764 26.8401C101.997 27.1746 101.091 27.341 100.046 27.341C98.7884 27.341 97.8016 26.971 97.0834 26.2327C96.3669 25.4936 96.0079 24.5003 96.0079 23.2561C96.0079 22.0347 96.3416 21.0168 97.0099 20.2051C97.7095 19.3385 98.6549 18.9051 99.8446 18.9051C101.013 18.9051 101.898 19.3385 102.498 20.2051C102.974 20.8918 103.213 21.7433 103.213 22.7543ZM101.496 22.2872C101.508 21.7526 101.39 21.2922 101.146 20.9028C100.834 20.4011 100.354 20.151 99.7111 20.151C99.1222 20.151 98.6423 20.3952 98.2773 20.8851C97.9773 21.2745 97.7991 21.7424 97.7441 22.2855L101.496 22.2872Z" fill="white"/>
<path d="M38.1976 11.9776C37.6966 11.9776 37.2631 11.9531 36.9023 11.9117V6.47702C37.4069 6.3991 37.9168 6.36069 38.4274 6.36214C40.4932 6.36214 41.4445 7.37829 41.4445 9.03471C41.4445 10.9454 40.3208 11.9776 38.1976 11.9776ZM38.5001 7.05901C38.2212 7.05901 37.9838 7.0759 37.787 7.11644V11.2478C37.8934 11.2647 38.0979 11.2723 38.3851 11.2723C39.7387 11.2723 40.5092 10.5019 40.5092 9.05921C40.5092 7.77276 39.8122 7.05901 38.5001 7.05901ZM44.4093 12.019C43.245 12.019 42.4905 11.1498 42.4905 9.96977C42.4905 8.73992 43.2611 7.86314 44.4752 7.86314C45.6226 7.86314 46.394 8.69093 46.394 9.90473C46.394 11.1498 45.5989 12.019 44.4093 12.019ZM44.4431 8.51017C43.8035 8.51017 43.3937 9.1082 43.3937 9.94443C43.3937 10.7646 43.812 11.3626 44.4347 11.3626C45.0574 11.3626 45.4756 10.7232 45.4756 9.92754C45.4756 9.11665 45.0658 8.51017 44.4431 8.51017ZM53.0332 7.94508L51.787 11.9286H50.9751L50.4588 10.1987C50.3305 9.77554 50.2236 9.34617 50.1386 8.91223H50.1217C50.0566 9.3464 49.9333 9.78141 49.8023 10.1987L49.2531 11.9286H48.4327L47.26 7.94508H48.17L48.6212 9.83885C48.7276 10.2899 48.8172 10.7156 48.8915 11.1177H48.9084C48.9735 10.7824 49.0799 10.3634 49.2362 9.84729L49.8023 7.94592H50.5239L51.0655 9.80675C51.1964 10.2578 51.3029 10.7004 51.3857 11.1185H51.4093C51.4668 10.7089 51.5572 10.2739 51.6797 9.80675L52.1638 7.94592L53.0332 7.94508ZM57.6211 11.9286H56.7356V9.64119C56.7356 8.93673 56.4652 8.58365 55.9321 8.58365C55.4074 8.58365 55.0466 9.03471 55.0466 9.55926V11.9286H54.1612V9.0837C54.1612 8.73147 54.1527 8.3539 54.1282 7.94423H54.9072L54.9486 8.55916H54.9731C55.2114 8.13344 55.6947 7.86314 56.2363 7.86314C57.0727 7.86314 57.6219 8.50256 57.6219 9.54321L57.6211 11.9286ZM60.0628 11.9286H59.1765V6.11719H60.0628V11.9286ZM63.2912 12.019C62.1278 12.019 61.3724 11.1498 61.3724 9.96977C61.3724 8.73992 62.143 7.86314 63.3563 7.86314C64.5045 7.86314 65.2751 8.69093 65.2751 9.90473C65.2759 11.1498 64.48 12.019 63.2912 12.019ZM63.3242 8.51017C62.6846 8.51017 62.2748 9.1082 62.2748 9.94443C62.2748 10.7646 62.6939 11.3626 63.3149 11.3626C63.9384 11.3626 64.3558 10.7232 64.3558 9.92754C64.3566 9.11665 63.9477 8.51017 63.3242 8.51017ZM68.7662 11.9286L68.702 11.4699H68.6783C68.408 11.8391 68.0134 12.019 67.5132 12.019C66.7993 12.019 66.2923 11.5189 66.2923 10.8466C66.2923 9.86334 67.1448 9.35485 68.6209 9.35485V9.28136C68.6209 8.75681 68.3429 8.49412 67.7937 8.49412C67.4008 8.49412 67.0561 8.59294 66.7528 8.78976L66.5728 8.20777C66.9412 7.97802 67.4008 7.86314 67.9407 7.86314C68.9816 7.86314 69.5072 8.41218 69.5072 9.51111V10.9783C69.5072 11.3804 69.5249 11.6921 69.5646 11.9294L68.7662 11.9286ZM68.6445 9.94443C67.6611 9.94443 67.1676 10.1826 67.1676 10.7477C67.1676 11.1658 67.422 11.3703 67.7751 11.3703C68.2255 11.3703 68.6445 11.0265 68.6445 10.5594V9.94443ZM73.8069 11.9286L73.7655 11.2892H73.741C73.4867 11.7723 73.0591 12.019 72.4618 12.019C71.5011 12.019 70.7897 11.1743 70.7897 9.98582C70.7897 8.73992 71.5273 7.8623 72.5345 7.8623C73.0676 7.8623 73.4453 8.04221 73.6582 8.40374H73.6759V6.11719H74.5622V10.855C74.5622 11.2402 74.5715 11.6008 74.5952 11.9286H73.8069ZM73.6759 9.5846C73.6759 9.02711 73.3067 8.55156 72.7432 8.55156C72.0867 8.55156 71.6853 9.13354 71.6853 9.95288C71.6853 10.7562 72.1019 11.3061 72.7254 11.3061C73.2822 11.3061 73.6759 10.8221 73.6759 10.2485V9.5846ZM80.1817 12.019C79.0183 12.019 78.2638 11.1498 78.2638 9.96977C78.2638 8.73992 79.0343 7.86314 80.2476 7.86314C81.3958 7.86314 82.1664 8.69093 82.1664 9.90473C82.1672 11.1498 81.3722 12.019 80.1817 12.019ZM80.2146 8.51017C79.5759 8.51017 79.1661 9.1082 79.1661 9.94443C79.1661 10.7646 79.5843 11.3626 80.2062 11.3626C80.8297 11.3626 81.2471 10.7232 81.2471 9.92754C81.2488 9.11665 80.839 8.51017 80.2146 8.51017ZM86.9282 11.9286H86.0419V9.64119C86.0419 8.93673 85.7716 8.58365 85.2384 8.58365C84.7137 8.58365 84.3538 9.03471 84.3538 9.55926V11.9286H83.4675V9.0837C83.4675 8.73147 83.4591 8.3539 83.4346 7.94423H84.2136L84.255 8.55916H84.2795C84.5169 8.13344 85.001 7.8623 85.5418 7.8623C86.3782 7.8623 86.9282 8.50172 86.9282 9.54236V11.9286ZM92.8857 8.60899H91.9115V10.5433C91.9115 11.0358 92.0821 11.2816 92.4269 11.2816C92.5832 11.2816 92.7141 11.2647 92.8198 11.2402L92.8443 11.9125C92.6727 11.9784 92.4429 12.0114 92.1573 12.0114C91.4595 12.0114 91.0421 11.6262 91.0421 10.6176V8.60899H90.4608V7.94508H91.0421V7.21527L91.9115 6.95258V7.94423H92.8857V8.60899ZM97.5732 11.9286H96.6886V9.65809C96.6886 8.94518 96.419 8.5845 95.8851 8.5845C95.4263 8.5845 94.9988 8.89618 94.9988 9.52716V11.9286H94.1141V6.11719H94.9988V8.51017H95.0165C95.2953 8.076 95.6992 7.8623 96.2146 7.8623C97.0578 7.8623 97.5732 8.51777 97.5732 9.55926V11.9286ZM102.376 10.1497H99.7184C99.7353 10.904 100.235 11.3297 100.974 11.3297C101.367 11.3297 101.728 11.2638 102.048 11.1413L102.186 11.7563C101.809 11.9201 101.365 12.0021 100.849 12.0021C99.6026 12.0021 98.865 11.2148 98.865 9.99427C98.865 8.77286 99.6204 7.85469 100.749 7.85469C101.767 7.85469 102.406 8.60899 102.406 9.74847C102.412 9.88294 102.402 10.0176 102.376 10.1497ZM101.564 9.51871C101.564 8.90379 101.254 8.46962 100.687 8.46962C100.179 8.46962 99.7767 8.91223 99.7192 9.51871H101.564Z" fill="white"/>
<defs>
<linearGradient id="paint0_linear_1987_2589" x1="83.6104" y1="34.4496" x2="83.6104" y2="-87.3698" gradientUnits="userSpaceOnUse">
<stop stop-color="#1A1A1A" stop-opacity="0.1"/>
<stop offset="0.123" stop-color="#212121" stop-opacity="0.151"/>
<stop offset="0.308" stop-color="#353535" stop-opacity="0.227"/>
<stop offset="0.532" stop-color="#575757" stop-opacity="0.318"/>
<stop offset="0.783" stop-color="#858585" stop-opacity="0.421"/>
<stop offset="1" stop-color="#B3B3B3" stop-opacity="0.51"/>
</linearGradient>
</defs>
</svg>
