<svg width="212" height="103" viewBox="0 0 212 103" fill="none" xmlns="http://www.w3.org/2000/svg">
<g clip-path="url(#clip0_3136_5659)">
<path d="M5.32108 83.1884V97.6122H9.02149C12.9675 97.5575 16.1225 94.3282 16.0704 90.3973C16.1741 86.5205 13.1038 83.2942 9.21221 83.1904C9.14839 83.1891 9.08516 83.1882 9.02149 83.1882L5.32108 83.1884ZM9.02149 78.6592C15.9236 78.6592 21.1393 83.8613 21.1393 90.3975C21.1393 96.9333 15.9235 102.135 9.02149 102.135H0.856883C0.532411 102.135 0.269531 101.873 0.269531 101.55V79.3151C0.269531 78.9917 0.53256 78.7299 0.856883 78.7299L9.02149 78.6592Z" fill="white"/>
<path d="M38.9496 98.1085C43.225 98.1085 46.6914 94.6557 46.6914 90.3968C46.6914 86.1376 43.225 82.6844 38.9496 82.6844C34.6739 82.6844 31.2077 86.1376 31.2077 90.3968C31.2143 94.6536 34.6764 98.1024 38.9496 98.1085ZM38.9496 78.1611C46.1865 78.1611 51.7371 83.691 51.7371 90.3968C51.7371 97.1022 46.1863 102.638 38.9496 102.638C31.7129 102.638 26.1562 97.1022 26.1562 90.3968C26.1562 83.6911 31.7071 78.1846 38.9496 78.1846" fill="white"/>
<path d="M69.3577 98.1085C73.6331 98.1119 77.1022 94.6619 77.1054 90.4026C77.1086 86.1433 73.645 82.6874 69.3696 82.6844C65.0939 82.6813 61.6251 86.1314 61.6217 90.3907C61.6217 90.3929 61.6217 90.3946 61.6217 90.3968C61.6284 94.6509 65.0871 98.0994 69.3577 98.1085ZM69.3577 78.1611C76.6005 78.1611 82.1512 83.691 82.1512 90.3968C82.1512 97.1022 76.6004 102.638 69.3577 102.638C62.115 102.638 56.5703 97.1022 56.5703 90.3968C56.5703 83.6911 62.1211 78.1846 69.3577 78.1846" fill="white"/>
<path d="M99.1031 83.1881H93.887V89.3909H99.1031C100.792 89.4684 102.223 88.1677 102.302 86.4862C102.303 86.4494 102.304 86.4135 102.305 86.3775C102.364 84.6756 101.027 83.2474 99.3187 83.1881C99.247 83.186 99.1753 83.186 99.1031 83.1881ZM88.8359 79.2679C88.8359 78.9445 89.099 78.6826 89.423 78.6826H99.2501C103.949 78.6826 107.327 82.1056 107.327 86.4008C107.355 89.3024 105.724 91.9666 103.121 93.2699L107.656 101.251C107.835 101.521 107.761 101.884 107.491 102.062C107.382 102.135 107.252 102.169 107.121 102.158H103.144C102.92 102.163 102.713 102.041 102.61 101.842L98.2397 93.9428H93.8635V101.55C93.8635 101.873 93.6005 102.135 93.2765 102.135H89.4465C89.1223 102.135 88.8591 101.873 88.8591 101.55L88.8359 79.2679Z" fill="white"/>
<path d="M120.49 83.2992V97.717H124.208C128.151 97.6623 131.305 94.4364 131.256 90.5078C131.36 86.6314 128.289 83.4051 124.398 83.3018C124.334 83.2995 124.271 83.2991 124.208 83.2991H120.49V83.2992ZM124.208 78.7705C131.109 78.7705 136.331 83.9662 136.331 90.5079C136.331 97.0504 131.109 102.246 124.208 102.246H116.048C115.724 102.246 115.461 101.984 115.461 101.661V79.3553C115.461 79.0319 115.724 78.7705 116.048 78.7705H124.208Z" fill="white"/>
<path d="M151.703 84.5053L148.843 92.2289H154.564L151.703 84.5053ZM147.157 96.5766L145.283 101.708C145.201 101.959 144.961 102.125 144.695 102.112H140.655C140.332 102.142 140.045 101.906 140.014 101.584C140.005 101.48 140.023 101.375 140.067 101.281L148.849 79.0456C148.937 78.8012 149.176 78.6438 149.435 78.6592H153.988C154.248 78.6438 154.488 78.8012 154.576 79.0456L163.351 101.281C163.489 101.574 163.362 101.922 163.068 102.059C162.973 102.104 162.869 102.122 162.764 102.112H158.699C158.434 102.124 158.194 101.959 158.112 101.708L156.238 96.5765L147.157 96.5766Z" fill="white"/>
<path d="M168.059 85.0083C168.059 81.3158 171.26 78.1329 176.311 78.1329C179.018 78.0677 181.643 79.0516 183.636 80.8769C183.871 81.1159 183.871 81.498 183.636 81.7373L181.363 83.9958C181.134 84.2253 180.763 84.2267 180.532 83.9992C180.53 83.9979 180.53 83.997 180.529 83.9958C179.461 83.0267 178.073 82.4812 176.629 82.4623C174.607 82.4623 173.104 83.6328 173.104 84.9788C173.104 89.338 185.046 86.822 185.046 95.2069C185.046 99.3967 181.845 102.58 176.123 102.58C172.942 102.618 169.878 101.392 167.606 99.1741C167.371 98.9358 167.371 98.553 167.606 98.3141L169.786 96.149C170.011 95.9164 170.382 95.9098 170.616 96.1336C170.621 96.1388 170.626 96.144 170.631 96.149C172.017 97.4726 173.857 98.2196 175.776 98.2379C178.303 98.2379 179.97 96.8926 179.97 95.2189C179.97 90.8597 168.035 93.3757 168.035 84.9907" fill="white"/>
<path d="M206.706 79.2443V88.0209H196.61V79.2443C196.61 78.9203 196.347 78.6584 196.022 78.6584H192.169C191.845 78.6584 191.582 78.9205 191.582 79.2443V101.479C191.582 101.803 191.845 102.064 192.169 102.064H195.999C196.323 102.064 196.586 101.802 196.586 101.479V92.5264H206.684V101.479C206.684 101.803 206.947 102.064 207.271 102.064H211.142C211.466 102.064 211.729 101.802 211.729 101.479V79.2443C211.729 78.9203 211.466 78.6584 211.142 78.6584H207.312C206.988 78.6493 206.717 78.9028 206.707 79.2258C206.707 79.232 206.706 79.2376 206.706 79.2443Z" fill="white"/>
<path d="M144.708 13.1467C140.487 5.25196 132.229 0.33138 123.25 0.361465H55.2891C53.9914 0.379694 52.9545 1.44215 52.9729 2.73447C52.9814 3.33587 53.2215 3.91104 53.6442 4.34038L68.4467 19.1736C69.7536 20.4843 71.532 21.2213 73.3866 21.2217H121.3C124.704 20.9794 127.661 23.5326 127.904 26.9233C128.147 30.3143 125.585 33.2598 122.18 33.5017C121.931 33.5196 121.68 33.5223 121.43 33.5095H88.377C87.0793 33.5248 86.0397 34.5847 86.0549 35.8772C86.0616 36.4804 86.3023 37.0582 86.7261 37.4886L101.535 52.3218C102.842 53.6326 104.62 54.3693 106.475 54.3699H121.406C140.843 54.3699 155.539 33.6737 144.684 13.1295" fill="white"/>
</g>
<defs>
<clipPath id="clip0_3136_5659">
<rect width="212" height="103" fill="white"/>
</clipPath>
</defs>
</svg>
