<svg width="109" height="33" viewBox="0 0 109 33" fill="none" xmlns="http://www.w3.org/2000/svg">
<g clip-path="url(#clip0_3137_5675)">
<path d="M95.0747 26.2774H99.9997L93.4247 16.3034L99.9997 6.33037H95.0617L90.9557 12.5554L86.8487 6.33037H81.9107L88.4867 16.3034L81.9107 26.2774H86.8487L90.9557 20.0384L95.0747 26.2774ZM79.7187 6.34237H75.5987V26.2644H79.7187V6.34237ZM52.2697 6.34237H48.1507V26.2894H52.2707L52.2697 6.34237ZM63.8847 10.4674C65.0193 10.4676 66.1075 10.918 66.9105 11.7196C67.7134 12.5213 68.1656 13.6087 68.1677 14.7434V26.3024H72.2997V14.7434C72.2997 10.1034 68.5207 6.34237 63.8847 6.34237C59.2367 6.34237 55.4707 10.1154 55.4707 14.7434V26.3024H59.6027V14.7434C59.6048 13.6089 60.0568 12.5216 60.8595 11.72C61.6623 10.9184 62.7502 10.4679 63.8847 10.4674ZM44.9017 14.7304H36.3097V14.1144C36.3094 13.6332 36.4041 13.1568 36.5882 12.7123C36.7724 12.2678 37.0424 11.864 37.3828 11.524C37.7233 11.184 38.1275 10.9145 38.5722 10.731C39.017 10.5475 39.4935 10.4534 39.9747 10.4544H44.8877V6.34237H39.9747C35.6667 6.34237 32.1897 9.82637 32.1897 14.1144V26.2764H36.3097V18.8434H44.8997V14.7314L44.9017 14.7304ZM18.5747 5.44937L11.8977 12.1154C11.2972 12.7134 10.4842 13.0492 9.63668 13.0492C8.78916 13.0492 7.97617 12.7134 7.37568 12.1154C7.07915 11.8189 6.84392 11.467 6.68343 11.0797C6.52295 10.6923 6.44035 10.2771 6.44035 9.85787C6.44035 9.43859 6.52295 9.02342 6.68343 8.63607C6.84392 8.24872 7.07915 7.89679 7.37568 7.60037L14.0517 0.934367C14.6522 0.335986 15.4654 0 16.3132 0C17.1609 0 17.9741 0.335986 18.5747 0.934367C19.8217 2.16637 19.8217 4.20437 18.5747 5.44937ZM18.5117 18.6174L12.0237 25.0944C11.4232 25.6924 10.6102 26.0282 9.76268 26.0282C8.91516 26.0282 8.10217 25.6924 7.50168 25.0944C7.20515 24.7979 6.96992 24.446 6.80943 24.0587C6.64895 23.6713 6.56635 23.2561 6.56635 22.8369C6.56635 22.4176 6.64895 22.0024 6.80943 21.6151C6.96992 21.2277 7.20515 20.8758 7.50168 20.5794L13.9887 14.1024C14.5892 13.504 15.4024 13.168 16.2502 13.168C17.0979 13.168 17.9111 13.504 18.5117 14.1024C18.8082 14.3988 19.0434 14.7507 19.2039 15.1381C19.3644 15.5254 19.447 15.9406 19.447 16.3599C19.447 16.7791 19.3644 17.1943 19.2039 17.5817C19.0434 17.969 18.8082 18.3209 18.5117 18.6174ZM5.45968 18.5264C6.71868 17.2684 6.72968 15.2424 5.48568 13.9994C4.24168 12.7564 2.21168 12.7694 0.951676 14.0264C-0.307324 15.2834 -0.318324 17.3104 0.925676 18.5524C2.16968 19.7954 4.20068 19.7834 5.45968 18.5264ZM18.6077 31.6604C19.8677 30.4034 19.8797 28.3774 18.6347 27.1344C17.3897 25.8914 15.3607 25.9044 14.1007 27.1614C12.8417 28.4184 12.8307 30.4454 14.0747 31.6874C15.3187 32.9304 17.3487 32.9164 18.6077 31.6604Z" fill="white"/>
</g>
<defs>
<clipPath id="clip0_3137_5675">
<rect width="109" height="33" fill="white"/>
</clipPath>
</defs>
</svg>
