<svg width="126" height="28" viewBox="0 0 126 28" fill="none" xmlns="http://www.w3.org/2000/svg">
<path d="M17.8019 9.972C17.3939 9.3 16.8299 8.784 16.1099 8.424C15.4139 8.064 14.5859 7.884 13.6259 7.884C11.8499 7.884 10.4459 8.46 9.41394 9.612C8.40594 10.764 7.90194 12.312 7.90194 14.256C7.90194 16.44 8.44194 18.108 9.52194 19.26C10.6259 20.388 12.2219 20.952 14.3099 20.952C16.7819 20.952 18.5459 19.836 19.6019 17.604H12.5099V12.528H25.6859V19.368C25.1339 20.712 24.3179 21.972 23.2379 23.148C22.1819 24.324 20.8379 25.296 19.2059 26.064C17.5739 26.808 15.7139 27.18 13.6259 27.18C11.0819 27.18 8.82594 26.64 6.85794 25.56C4.91394 24.456 3.40194 22.932 2.32194 20.988C1.26594 19.02 0.737938 16.776 0.737938 14.256C0.737938 11.76 1.26594 9.54 2.32194 7.596C3.40194 5.628 4.91394 4.104 6.85794 3.024C8.80194 1.92 11.0459 1.368 13.5899 1.368C16.7819 1.368 19.4219 2.136 21.5099 3.672C23.5979 5.208 24.8939 7.308 25.3979 9.972H17.8019ZM35.904 10.368C36.696 9.216 37.656 8.304 38.784 7.632C39.912 6.96 41.124 6.624 42.42 6.624V14.148H40.44C38.904 14.148 37.764 14.448 37.02 15.048C36.276 15.648 35.904 16.692 35.904 18.18V27H28.848V6.804H35.904V10.368ZM43.7976 16.884C43.7976 14.796 44.1696 12.972 44.9136 11.412C45.6816 9.852 46.7136 8.652 48.0096 7.812C49.3296 6.972 50.7936 6.552 52.4016 6.552C53.7936 6.552 54.9936 6.828 56.0016 7.38C57.0096 7.932 57.7896 8.676 58.3416 9.612V6.804H65.3976V27H58.3416V24.192C57.7896 25.128 56.9976 25.872 55.9656 26.424C54.9576 26.976 53.7696 27.252 52.4016 27.252C50.7936 27.252 49.3296 26.832 48.0096 25.992C46.7136 25.152 45.6816 23.952 44.9136 22.392C44.1696 20.808 43.7976 18.972 43.7976 16.884ZM58.3416 16.884C58.3416 15.588 57.9816 14.568 57.2616 13.824C56.5656 13.08 55.7016 12.708 54.6696 12.708C53.6136 12.708 52.7376 13.08 52.0416 13.824C51.3456 14.544 50.9976 15.564 50.9976 16.884C50.9976 18.18 51.3456 19.212 52.0416 19.98C52.7376 20.724 53.6136 21.096 54.6696 21.096C55.7016 21.096 56.5656 20.724 57.2616 19.98C57.9816 19.236 58.3416 18.204 58.3416 16.884ZM76.4743 9.612C77.0263 8.652 77.8063 7.908 78.8143 7.38C79.8223 6.828 81.0103 6.552 82.3783 6.552C83.9863 6.552 85.4383 6.972 86.7343 7.812C88.0543 8.652 89.0863 9.852 89.8303 11.412C90.5983 12.972 90.9823 14.796 90.9823 16.884C90.9823 18.972 90.5983 20.808 89.8303 22.392C89.0863 23.952 88.0543 25.152 86.7343 25.992C85.4383 26.832 83.9863 27.252 82.3783 27.252C81.0103 27.252 79.8223 26.988 78.8143 26.46C77.8063 25.908 77.0263 25.152 76.4743 24.192V27H69.4183V0.36H76.4743V9.612ZM83.8183 16.884C83.8183 15.564 83.4583 14.544 82.7383 13.824C82.0423 13.08 81.1783 12.708 80.1463 12.708C79.1143 12.708 78.2383 13.08 77.5183 13.824C76.8223 14.568 76.4743 15.588 76.4743 16.884C76.4743 18.204 76.8223 19.236 77.5183 19.98C78.2383 20.724 79.1143 21.096 80.1463 21.096C81.1783 21.096 82.0423 20.724 82.7383 19.98C83.4583 19.212 83.8183 18.18 83.8183 16.884ZM100.943 9.612C101.495 8.652 102.275 7.908 103.283 7.38C104.291 6.828 105.479 6.552 106.847 6.552C108.455 6.552 109.907 6.972 111.203 7.812C112.523 8.652 113.555 9.852 114.299 11.412C115.067 12.972 115.451 14.796 115.451 16.884C115.451 18.972 115.067 20.808 114.299 22.392C113.555 23.952 112.523 25.152 111.203 25.992C109.907 26.832 108.455 27.252 106.847 27.252C105.479 27.252 104.291 26.988 103.283 26.46C102.275 25.908 101.495 25.152 100.943 24.192V27H93.8871V0.36H100.943V9.612ZM108.287 16.884C108.287 15.564 107.927 14.544 107.207 13.824C106.511 13.08 105.647 12.708 104.615 12.708C103.583 12.708 102.707 13.08 101.987 13.824C101.291 14.568 100.943 15.588 100.943 16.884C100.943 18.204 101.291 19.236 101.987 19.98C102.707 20.724 103.583 21.096 104.615 21.096C105.647 21.096 106.511 20.724 107.207 19.98C107.927 19.212 108.287 18.18 108.287 16.884ZM125.412 0.36V27H118.356V0.36H125.412Z" fill="#D40C0C"/>
</svg>
