<svg width="461" height="146" viewBox="0 0 461 146" fill="none" xmlns="http://www.w3.org/2000/svg">
<g clip-path="url(#clip0_3138_5688)">
<path d="M144.78 50.7695H130.73V119.71H144.78V50.7695Z" fill="white"/>
<path d="M212.961 61.1504C210.096 57.9228 206.574 55.3452 202.631 53.5904C198.111 51.6347 193.224 50.673 188.301 50.7704H158.461V119.71H188.331C193.255 119.81 198.142 118.848 202.661 116.89C206.593 115.132 210.105 112.555 212.961 109.33C215.752 106.11 217.882 102.373 219.231 98.3304C222.044 89.8305 222.044 80.6503 219.231 72.1504C217.882 68.1083 215.752 64.3707 212.961 61.1504ZM202.491 101.25C200.807 103.318 198.672 104.973 196.251 106.09C193.479 107.318 190.472 107.923 187.441 107.86H172.441V62.4404H187.441C190.472 62.3782 193.479 62.9824 196.251 64.2104C198.672 65.3275 200.807 66.983 202.491 69.0504C204.194 71.1881 205.464 73.6371 206.231 76.2604C207.898 82.0733 207.898 88.2375 206.231 94.0504C205.472 96.6679 204.212 99.1132 202.521 101.25H202.491Z" fill="white"/>
<path d="M317.039 50.7704H305.869L292.049 98.8605L277.139 50.7704H264.479L249.119 98.8605L235.759 50.7704H224.289C223.995 50.7498 223.7 50.8009 223.43 50.9193C223.16 51.0378 222.923 51.22 222.739 51.4505C222.563 51.7221 222.456 52.0323 222.426 52.3545C222.397 52.6767 222.446 53.0013 222.569 53.3004L242.569 119.71H255.039L270.829 70.5204L285.829 119.71H298.829L318.939 53.3105C319.056 53.0125 319.1 52.6908 319.067 52.3723C319.034 52.0539 318.925 51.748 318.749 51.4805C318.548 51.2261 318.286 51.0273 317.987 50.9031C317.687 50.7788 317.361 50.7331 317.039 50.7704Z" fill="white"/>
<path d="M333.679 48.9598C332.676 48.9048 331.673 49.0537 330.729 49.3975C329.786 49.7412 328.921 50.2727 328.189 50.9598C327.546 51.5851 327.036 52.335 326.692 53.1637C326.349 53.9925 326.177 54.8826 326.189 55.7798C326.17 56.6914 326.337 57.5973 326.681 58.4417C327.025 59.2861 327.538 60.0512 328.189 60.6898C328.922 61.3764 329.786 61.9076 330.729 62.2513C331.673 62.595 332.676 62.7442 333.679 62.6898C334.696 62.7501 335.715 62.604 336.673 62.2603C337.632 61.9166 338.512 61.3824 339.259 60.6898C339.909 60.0508 340.422 59.2857 340.766 58.4414C341.11 57.597 341.278 56.6913 341.259 55.7798C341.27 54.8827 341.099 53.9927 340.755 53.1641C340.411 52.3354 339.902 51.5854 339.259 50.9598C338.512 50.2667 337.633 49.7322 336.674 49.3885C335.715 49.0447 334.696 48.8989 333.679 48.9598Z" fill="white"/>
<path d="M340.699 69.9902H327.129V119.7H340.699V69.9902Z" fill="white"/>
<path d="M391.188 93.2305C389.236 92.347 387.194 91.6764 385.098 91.2305C382.958 90.7505 380.768 90.3305 378.588 89.9705C376.408 89.6105 374.318 89.2405 372.318 88.8305C370.515 88.4866 368.761 87.9189 367.098 87.1405C366.055 86.7081 365.137 86.0204 364.428 85.1405C363.998 84.5613 363.76 83.8619 363.748 83.1405C363.748 81.4805 364.608 80.2905 366.478 79.4005C369.111 78.3087 371.951 77.8036 374.798 77.9205C378.173 77.9014 381.535 78.325 384.798 79.1805C387.738 79.937 390.566 81.0768 393.208 82.5705L394.208 83.1405L398.138 73.4905L397.338 73.0705C394.107 71.4545 390.693 70.2356 387.168 69.4405C383.049 68.472 378.83 67.9953 374.598 68.0205C371.548 68.0015 368.504 68.2828 365.508 68.8605C362.944 69.3431 360.479 70.256 358.218 71.5605C356.195 72.7377 354.497 74.4013 353.278 76.4005C352.061 78.5503 351.453 80.991 351.518 83.4605C351.485 85.7297 352.058 87.9667 353.178 89.9405C354.649 92.178 356.698 93.975 359.108 95.1405C361.099 96.2268 363.224 97.0472 365.428 97.5805C367.618 98.1205 369.828 98.5805 371.988 98.9805C374.148 99.3805 376.198 99.7305 378.208 100.081C379.924 100.361 381.602 100.837 383.208 101.5C384.435 101.906 385.525 102.643 386.358 103.63C386.817 104.241 387.075 104.978 387.098 105.74C387.098 107.57 386.098 108.94 384.098 109.91C381.888 110.99 378.758 111.53 374.788 111.53C371.079 111.552 367.382 111.098 363.788 110.18C360.291 109.253 356.917 107.91 353.738 106.18L352.738 105.63L349.398 115.16L350.098 115.57C353.499 117.54 357.153 119.034 360.958 120.01C365.323 121.122 369.814 121.664 374.318 121.62C381.928 121.62 388.048 120.25 392.518 117.56C397.158 114.76 399.518 110.71 399.518 105.51C399.508 99.9505 396.708 95.8205 391.188 93.2305Z" fill="white"/>
<path d="M458.61 81.4395C457.417 78.7046 455.634 76.2667 453.39 74.2995C450.953 72.2077 448.12 70.6265 445.06 69.6495C441.448 68.5137 437.677 67.9634 433.89 68.0195C429.706 67.9415 425.545 68.647 421.62 70.0995C418.293 71.3574 415.272 73.3109 412.76 75.8295C410.388 78.2756 408.568 81.2012 407.42 84.4095C406.217 87.7888 405.615 91.3526 405.64 94.9395C405.545 99.0182 406.361 103.067 408.03 106.79C409.551 110.045 411.807 112.904 414.62 115.14C417.515 117.374 420.816 119.025 424.34 120C428.166 121.062 432.12 121.587 436.09 121.56C439.821 121.58 443.538 121.119 447.15 120.19C450.464 119.361 453.561 117.83 456.23 115.7L456.8 115.23L452.96 105.78L451.96 106.519C449.958 107.857 447.723 108.807 445.37 109.32C442.618 109.992 439.794 110.328 436.96 110.32C434.624 110.336 432.295 110.074 430.02 109.54C428.01 109.07 426.095 108.258 424.36 107.14C422.746 106.062 421.382 104.65 420.36 103C419.433 101.491 418.795 99.8223 418.48 98.0795H459.39L459.59 97.3295C460.189 95.0446 460.488 92.6916 460.48 90.3295C460.476 87.2691 459.839 84.2425 458.61 81.4395ZM418.42 90.1095C418.983 86.9815 420.574 84.1308 422.94 82.0095C425.57 79.6395 429.48 78.4395 434.56 78.4395C439.49 78.4395 443.14 79.5995 445.42 81.8795C446.505 82.9583 447.367 84.2405 447.955 85.6528C448.544 87.065 448.848 88.5795 448.85 90.1095H418.42Z" fill="white"/>
<path d="M31.1517 88.0303C29.8284 88.0318 28.5214 88.3218 27.3217 88.8803C27.6389 89.1732 27.8917 89.529 28.0638 89.925C28.236 90.321 28.3238 90.7485 28.3217 91.1803C28.3234 91.8141 28.1338 92.4338 27.7777 92.9582C27.4217 93.4826 26.9157 93.8874 26.3259 94.1197C25.7361 94.3519 25.0899 94.4008 24.4719 94.26C23.8538 94.1191 23.2927 93.7951 22.8617 93.3303C22.3016 94.5259 22.0114 95.83 22.0117 97.1503C22.0117 98.954 22.5466 100.717 23.5487 102.217C24.5508 103.717 25.9752 104.886 27.6416 105.576C29.3081 106.266 31.1418 106.447 32.9109 106.095C34.68 105.743 36.3051 104.875 37.5805 103.599C38.856 102.324 39.7246 100.699 40.0765 98.9295C40.4284 97.1604 40.2478 95.3267 39.5575 93.6602C38.8672 91.9938 37.6983 90.5694 36.1985 89.5673C34.6987 88.5651 32.9355 88.0303 31.1317 88.0303H31.1517Z" fill="white"/>
<path d="M99.8001 70.6003C105.38 64.0196 109.361 56.2364 111.43 47.8604C106.339 53.0902 100.316 57.3228 93.6701 60.3403C87.2701 66.6403 75.1501 74.5003 53.2201 77.1603C48.7569 77.7034 44.2662 77.9905 39.7701 78.0203C44.2754 80.0459 47.9224 83.5948 50.0701 88.0431C52.2178 92.4915 52.7286 97.5545 51.5128 102.342C50.297 107.13 47.4325 111.336 43.4226 114.221C39.4128 117.105 34.5145 118.484 29.5886 118.115C24.6628 117.745 20.0248 115.651 16.49 112.201C12.9552 108.751 10.7499 104.165 10.2617 99.2491C9.77344 94.3336 11.0336 89.4034 13.8206 85.325C16.6077 81.2467 20.7432 78.2814 25.5001 76.9503C21.2266 76.2847 17.0429 75.1339 13.0301 73.5203C12.5501 73.3203 12.0901 73.1103 11.6201 72.9003C8.10662 75.7289 5.24931 79.2867 3.24572 83.3278C1.24214 87.369 0.140082 91.7971 0.0157445 96.3059C-0.108593 100.815 0.74776 105.297 2.52559 109.442C4.30341 113.588 6.9603 117.298 10.3126 120.315C13.6649 123.333 17.6326 125.587 21.9413 126.921C26.2501 128.255 30.7972 128.637 35.2683 128.042C39.7393 127.446 44.0277 125.886 47.8368 123.471C51.6459 121.055 54.885 117.841 57.3301 114.05C59.8686 117.977 63.2585 121.282 67.2485 123.72C71.2384 126.158 75.726 127.666 80.3783 128.133C85.0307 128.6 89.7286 128.014 94.1235 126.418C98.5184 124.821 102.498 122.256 105.766 118.913C109.034 115.569 111.508 111.532 113.003 107.102C114.499 102.672 114.978 97.9619 114.405 93.3214C113.832 88.6808 112.222 84.2288 109.693 80.2956C107.165 76.3623 103.784 73.0486 99.8001 70.6003ZM83.5001 118.14C79.3467 118.14 75.2866 116.909 71.8331 114.601C68.3797 112.294 65.6881 109.014 64.0986 105.177C62.5092 101.339 62.0933 97.117 62.9036 93.0434C63.7139 88.9698 65.714 85.228 68.6509 82.2911C71.5878 79.3542 75.3296 77.3541 79.4032 76.5439C83.4768 75.7336 87.6992 76.1494 91.5365 77.7389C95.3737 79.3283 98.6535 82.0199 100.961 85.4734C103.268 88.9268 104.5 92.9869 104.5 97.1404C104.5 102.71 102.288 108.051 98.3494 111.99C94.4111 115.928 89.0697 118.14 83.5001 118.14Z" fill="white"/>
<path d="M89.4618 94.3396C88.8287 94.3393 88.2105 94.1483 87.6876 93.7914C87.1648 93.4346 86.7616 92.9284 86.5306 92.3391C86.2996 91.7497 86.2515 91.1044 86.3926 90.4873C86.5338 89.8702 86.8575 89.31 87.3218 88.8796C85.3739 87.975 83.1698 87.7852 81.096 88.3435C79.0223 88.9018 77.2113 90.1725 75.9809 91.9327C74.7504 93.6929 74.1791 95.8301 74.3671 97.9695C74.5552 100.109 75.4905 102.114 77.0091 103.632C78.5277 105.151 80.5325 106.086 82.6719 106.274C84.8112 106.462 86.9485 105.891 88.7086 104.66C90.4688 103.43 91.7395 101.619 92.2978 99.5453C92.8561 97.4715 92.6663 95.2674 91.7617 93.3196C91.4698 93.6395 91.1146 93.8953 90.7187 94.0709C90.3229 94.2465 89.8948 94.3379 89.4618 94.3396Z" fill="white"/>
<path d="M57.3286 145.38L48.0586 129.65L57.3286 119.7L66.5886 129.65L57.3286 145.38Z" fill="white"/>
<path d="M128.08 135.23L108.24 115.44C106.803 117.133 105.267 118.739 103.64 120.25C102.58 121.31 101.46 122.33 100.32 123.32L120.18 143.18C121.241 144.165 122.641 144.7 124.087 144.673C125.534 144.646 126.913 144.059 127.936 143.036C128.959 142.013 129.546 140.634 129.573 139.187C129.599 137.741 129.065 136.341 128.08 135.28V135.23Z" fill="white"/>
<path d="M79.7109 26.4398C74.6609 14.5998 66.5809 0.259766 57.3309 0.00976562C57.2109 0.00976562 56.7009 0.00976562 56.4609 0.00976562C53.7609 0.329766 51.7909 2.56977 49.8309 4.91977C48.0909 6.99977 46.0109 9.36977 43.8309 9.75977C42.3509 9.92977 40.9909 8.97975 38.9109 7.23975C36.4409 5.29975 33.2709 2.81977 28.7309 3.35977L28.2409 3.41977C26.9209 3.82977 16.6809 7.68977 13.1409 35.0098C8.63085 37.9198 -0.979148 44.9398 0.140852 53.7798C1.64085 66.1698 20.2109 76.6198 52.7409 72.6898C79.2509 69.4798 90.1009 58.3298 93.6409 53.6898C96.5309 49.6898 97.8008 45.8398 97.2608 42.4198C95.5808 33.1298 85.1609 28.2898 79.7109 26.4398ZM78.4109 41.4398C76.9109 43.4898 70.5209 49.3697 48.4109 51.7997C25.9109 54.1497 19.7909 49.9098 18.6809 48.9198C18.7809 46.6698 18.8809 44.4098 19.0109 42.4098C28.4072 45.3583 38.3224 46.2786 48.1009 45.1098C58.0856 43.8751 67.6979 40.5494 76.3109 35.3498C77.0409 37.3598 77.7909 39.4398 78.4109 41.4398ZM29.8809 9.82977C31.3609 9.77977 32.7409 10.8298 34.8009 12.4798C37.2809 14.4198 40.3209 16.9098 44.4909 16.4098L45.1109 16.3298C49.5009 15.5498 52.4409 12.0798 54.8409 9.32977C55.605 8.36471 56.4551 7.47103 57.3809 6.65976C62.9309 7.22976 69.9309 19.8298 75.0509 32.2898C50.4609 47.2198 27.7909 41.9998 19.3509 39.1598C21.5809 15.3098 28.8309 10.4398 29.8809 9.81976V9.82977ZM88.2509 49.7097C85.8909 52.8597 76.4309 63.2197 51.7709 66.2097C22.4409 69.7597 7.35086 60.3798 6.46086 53.0098C6.02086 49.3298 9.20087 45.8298 12.2809 43.4698C12.1509 45.4698 12.0309 47.6097 11.9209 49.7397C11.9067 50.155 11.9573 50.57 12.0709 50.9698C12.9609 53.4398 18.4409 61.4398 48.9609 58.1998L51.2909 57.9198C80.2909 54.4098 84.4209 44.5697 84.9209 42.5197C85.0407 41.9022 85.0407 41.2673 84.9209 40.6497C84.5009 39.1997 83.5709 36.6997 82.4509 33.6497C86.0609 35.6497 89.8209 38.9797 90.6109 43.4897C90.9609 44.6397 90.3909 46.8298 88.2509 49.6998V49.7097Z" fill="white"/>
</g>
<defs>
<clipPath id="clip0_3138_5688">
<rect width="460.42" height="145.38" fill="white"/>
</clipPath>
</defs>
</svg>
