<svg width="189" height="189" viewBox="0 0 189 189" fill="none" xmlns="http://www.w3.org/2000/svg">
<g clip-path="url(#clip0_3086_5618)">
<mask id="mask0_3086_5618" style="mask-type:luminance" maskUnits="userSpaceOnUse" x="0" y="0" width="189" height="189">
<path d="M189 0H0V189H189V0Z" fill="white"/>
</mask>
<g mask="url(#mask0_3086_5618)">
<path d="M20.7105 85.8153C-12.5671 59.0761 8.78983 10.4836 48.7486 25.6669C62.1616 31.3558 89.9083 2.68785 110.332 27.788C122.83 43.1483 131.359 35.7494 158.003 31.8747C189.896 28.7057 209.259 98.6896 151.484 115.113C122.124 120.874 117.852 147.81 79.6948 142C41.5372 136.19 53.9884 112.555 20.7105 85.8153Z" fill="#FCD0D0"/>
<path d="M119.025 79.3071C119.011 92.4374 118.825 105.568 118.953 118.698C119.072 130.707 119.393 142.741 119.199 154.751C119.068 162.724 117.187 171 102.815 171.367C96.6573 171.522 90.7287 171.463 84.5817 171.08C81.149 170.867 76.5208 171.266 71.8697 170.873C62.968 170.121 58.5237 163.861 58.3637 154.622C58.1071 139.732 57.7031 71.1829 57.9978 56.2948C58.0772 52.2395 57.9494 48.7529 58.8858 44.7721C59.7984 40.8961 63.9019 38.1633 67.4748 38.0218C77.1587 37.6362 86.8624 37.5231 96.5535 37.6345C100.764 37.682 105.953 37.5993 110.149 38.1508C113.986 38.656 117.357 39.959 117.894 44.7738C118.618 51.2857 118.852 58.2585 118.944 64.691C119.01 69.5644 119.029 74.435 119.025 79.3071Z" fill="#262626"/>
<path d="M81.9979 48.5742C81.8701 48.1415 81.9423 47.7675 82.2417 47.4647C82.2717 47.4321 82.3112 47.4153 82.3523 47.4142C85.809 47.3152 89.2619 47.2143 92.7166 47.1191C93.0589 47.1086 93.4004 47.1449 93.743 47.1286C94.1343 47.1112 94.3544 47.2428 94.2283 47.766C94.1405 48.1339 94.3228 48.6812 93.6658 48.5953C90.3392 48.1612 87.0105 48.4973 83.6826 48.6049C83.1542 48.5392 82.6276 48.4776 82.1042 48.6389C82.0608 48.6518 82.0125 48.6253 81.9979 48.5742Z" fill="#606262"/>
<path d="M88.9416 43.2106C88.8864 43.5242 88.6787 43.7351 88.3606 43.8869C88.3233 43.8998 88.2859 43.9127 88.2466 43.9217C88.1287 43.9524 88.0073 43.9636 87.8901 43.9515C87.5415 43.8895 87.3256 43.6388 87.2301 43.3435C87.2155 43.2963 87.2028 43.2452 87.192 43.194C87.092 42.6408 87.2468 42.0594 87.8767 41.8455C87.9199 41.8367 87.9631 41.8296 88.0043 41.8266C88.2099 41.8113 88.3866 41.8698 88.5619 42.0003C88.6156 42.0523 88.6574 42.106 88.6933 42.1653C88.7103 42.193 88.7253 42.2226 88.7403 42.2523C88.7629 42.2978 88.7835 42.3431 88.8003 42.3884C88.8168 42.4318 88.8316 42.4771 88.8424 42.5203C88.881 42.7342 88.9364 42.8919 88.95 43.0895C88.9493 43.1266 88.9485 43.1676 88.9416 43.2106Z" fill="#606262"/>
<path d="M75.2846 48.7838C74.8925 48.9399 74.5052 48.8519 74.1135 48.5993C74.0692 48.5673 74.0288 48.5332 73.9904 48.4952C73.8736 48.3852 73.7765 48.2542 73.7091 48.1101C73.5323 47.6745 73.6661 47.2529 73.9326 46.9378C73.9767 46.8859 74.0226 46.836 74.0744 46.792C74.6343 46.2856 75.3995 46.0549 76.084 46.6183C76.1261 46.6623 76.1624 46.7061 76.1946 46.7497C76.3563 46.972 76.4158 47.2117 76.3903 47.5025C76.3688 47.5998 76.3357 47.6872 76.2949 47.7664C76.2764 47.807 76.2522 47.8457 76.2301 47.8824C76.1955 47.9404 76.1572 47.9943 76.1171 48.0443C76.0791 48.0944 76.0389 48.1425 75.9968 48.1885C75.7838 48.3815 75.6433 48.5527 75.429 48.7067C75.3875 48.7331 75.34 48.7595 75.2846 48.7838Z" fill="#606262"/>
<path d="M116.134 146.189C114.779 122.93 116.445 99.8923 115.182 76.6275C114.861 70.7479 114.973 67.487 114.859 61.6467C114.781 57.7054 114.463 56.5551 114.369 54.8601C114.252 52.8088 97.3382 54.3474 95.9387 54.3244C86.3876 54.1612 74.4978 54.6694 64.0282 54.9447C63.5704 54.9567 63.1554 55.263 63.0489 55.7847C62.6314 57.831 62.696 62.204 62.6458 63.8825C62.3038 75.3696 62.5888 86.5099 62.2978 97.9961C61.9308 112.414 63.6477 122.183 63.3496 136.868C63.2643 141.103 63.3296 145.537 63.6825 151.374C63.76 152.647 66.5398 152.669 67.1034 152.645C82.0595 152.012 100.67 153.713 115.731 152.099C115.983 152.073 116.173 151.813 116.165 151.517C116.109 149.475 116.263 149.817 116.142 147.777L116.134 146.189Z" fill="#D40C0C"/>
<path d="M93.5239 162.586C93.5449 163.65 93.2232 164.748 92.5404 165.727C91.7969 166.797 90.7494 167.34 89.446 167.307C87.2847 167.255 85.5103 166.456 84.3651 164.536C83.9474 163.834 83.6991 163.074 83.7337 162.249C83.7526 161.804 83.875 161.369 84.0767 160.976C84.6611 159.836 85.3979 158.805 86.4785 158.079C87.2991 157.527 88.216 157.344 89.188 157.517C91.3446 157.899 93.0937 159.363 93.4755 161.603C93.5245 161.888 93.5011 162.171 93.5239 162.586Z" fill="#606262"/>
<g opacity="0.899994">
<g opacity="0.899994">
<g opacity="0.899994">
<g opacity="0.899994">
<path opacity="0.899994" d="M175.166 112.315L170.918 112.326" stroke="#3B5648" stroke-width="0.0033" stroke-miterlimit="10"/>
</g>
<g opacity="0.899994">
<path opacity="0.899994" d="M162.633 85.8545L166.276 83.667" stroke="#3B5648" stroke-width="0.0033" stroke-miterlimit="10"/>
</g>
<g opacity="0.899994">
<path opacity="0.899994" d="M107.258 133.62L110.902 131.434" stroke="#3B5648" stroke-width="0.0033" stroke-miterlimit="10"/>
</g>
<g opacity="0.899994">
<path opacity="0.899994" d="M97.3477 106.596L101.597 106.539" stroke="#3B5648" stroke-width="0.0033" stroke-miterlimit="10"/>
</g>
<g opacity="0.899994">
<path opacity="0.899994" d="M108.113 81.5488L111.397 84.2462" stroke="#3B5648" stroke-width="0.0033" stroke-miterlimit="10"/>
</g>
<g opacity="0.899994">
<path opacity="0.899994" d="M156.449 131.025L159.731 133.722" stroke="#3B5648" stroke-width="0.0033" stroke-miterlimit="10"/>
</g>
</g>
</g>
</g>
<path d="M137.723 68.5137L137.962 72.7664" stroke="#3B5648" stroke-width="0.0033" stroke-miterlimit="10"/>
</g>
<path d="M73.5936 102.324C73.4576 102.1 73.2696 101.928 73.0296 101.808C72.7976 101.688 72.5216 101.628 72.2016 101.628C71.6096 101.628 71.1416 101.82 70.7976 102.204C70.4616 102.588 70.2936 103.104 70.2936 103.752C70.2936 104.48 70.4736 105.036 70.8336 105.42C71.2016 105.796 71.7336 105.984 72.4296 105.984C73.2536 105.984 73.8416 105.612 74.1936 104.868H71.8296V103.176H76.2216V105.456C76.0376 105.904 75.7656 106.324 75.4056 106.716C75.0536 107.108 74.6056 107.432 74.0616 107.688C73.5176 107.936 72.8976 108.06 72.2016 108.06C71.3536 108.06 70.6016 107.88 69.9456 107.52C69.2976 107.152 68.7936 106.644 68.4336 105.996C68.0816 105.34 67.9056 104.592 67.9056 103.752C67.9056 102.92 68.0816 102.18 68.4336 101.532C68.7936 100.876 69.2976 100.368 69.9456 100.008C70.5936 99.64 71.3416 99.456 72.1896 99.456C73.2536 99.456 74.1336 99.712 74.8296 100.224C75.5256 100.736 75.9576 101.436 76.1256 102.324H73.5936ZM79.6276 102.456C79.8916 102.072 80.2116 101.768 80.5876 101.544C80.9636 101.32 81.3676 101.208 81.7996 101.208V103.716H81.1396C80.6276 103.716 80.2476 103.816 79.9996 104.016C79.7516 104.216 79.6276 104.564 79.6276 105.06V108H77.2756V101.268H79.6276V102.456ZM82.2588 104.628C82.2588 103.932 82.3828 103.324 82.6308 102.804C82.8868 102.284 83.2308 101.884 83.6628 101.604C84.1028 101.324 84.5908 101.184 85.1268 101.184C85.5908 101.184 85.9908 101.276 86.3268 101.46C86.6628 101.644 86.9228 101.892 87.1068 102.204V101.268H89.4588V108H87.1068V107.064C86.9228 107.376 86.6588 107.624 86.3148 107.808C85.9788 107.992 85.5828 108.084 85.1268 108.084C84.5908 108.084 84.1028 107.944 83.6628 107.664C83.2308 107.384 82.8868 106.984 82.6308 106.464C82.3828 105.936 82.2588 105.324 82.2588 104.628ZM87.1068 104.628C87.1068 104.196 86.9868 103.856 86.7468 103.608C86.5148 103.36 86.2268 103.236 85.8828 103.236C85.5308 103.236 85.2388 103.36 85.0068 103.608C84.7748 103.848 84.6588 104.188 84.6588 104.628C84.6588 105.06 84.7748 105.404 85.0068 105.66C85.2388 105.908 85.5308 106.032 85.8828 106.032C86.2268 106.032 86.5148 105.908 86.7468 105.66C86.9868 105.412 87.1068 105.068 87.1068 104.628ZM93.1511 102.204C93.3351 101.884 93.5951 101.636 93.9311 101.46C94.2671 101.276 94.6631 101.184 95.1191 101.184C95.6551 101.184 96.1391 101.324 96.5711 101.604C97.0111 101.884 97.3551 102.284 97.6031 102.804C97.8591 103.324 97.9871 103.932 97.9871 104.628C97.9871 105.324 97.8591 105.936 97.6031 106.464C97.3551 106.984 97.0111 107.384 96.5711 107.664C96.1391 107.944 95.6551 108.084 95.1191 108.084C94.6631 108.084 94.2671 107.996 93.9311 107.82C93.5951 107.636 93.3351 107.384 93.1511 107.064V108H90.7991V99.12H93.1511V102.204ZM95.5991 104.628C95.5991 104.188 95.4791 103.848 95.2391 103.608C95.0071 103.36 94.7191 103.236 94.3751 103.236C94.0311 103.236 93.7391 103.36 93.4991 103.608C93.2671 103.856 93.1511 104.196 93.1511 104.628C93.1511 105.068 93.2671 105.412 93.4991 105.66C93.7391 105.908 94.0311 106.032 94.3751 106.032C94.7191 106.032 95.0071 105.908 95.2391 105.66C95.4791 105.404 95.5991 105.06 95.5991 104.628ZM101.307 102.204C101.491 101.884 101.751 101.636 102.087 101.46C102.423 101.276 102.819 101.184 103.275 101.184C103.811 101.184 104.295 101.324 104.727 101.604C105.167 101.884 105.511 102.284 105.759 102.804C106.015 103.324 106.143 103.932 106.143 104.628C106.143 105.324 106.015 105.936 105.759 106.464C105.511 106.984 105.167 107.384 104.727 107.664C104.295 107.944 103.811 108.084 103.275 108.084C102.819 108.084 102.423 107.996 102.087 107.82C101.751 107.636 101.491 107.384 101.307 107.064V108H98.9553V99.12H101.307V102.204ZM103.755 104.628C103.755 104.188 103.635 103.848 103.395 103.608C103.163 103.36 102.875 103.236 102.531 103.236C102.187 103.236 101.895 103.36 101.655 103.608C101.423 103.856 101.307 104.196 101.307 104.628C101.307 105.068 101.423 105.412 101.655 105.66C101.895 105.908 102.187 106.032 102.531 106.032C102.875 106.032 103.163 105.908 103.395 105.66C103.635 105.404 103.755 105.06 103.755 104.628ZM109.464 99.12V108H107.112V99.12H109.464Z" fill="white"/>
</g>
<defs>
<clipPath id="clip0_3086_5618">
<rect width="189" height="189" fill="white"/>
</clipPath>
</defs>
</svg>
