<svg width="289" height="98" viewBox="0 0 289 98" fill="none" xmlns="http://www.w3.org/2000/svg">
<path d="M10.2287 0.0680753C10.8904 0.0723201 11.552 0.0765649 12.2337 0.0809384C14.3431 0.0977071 16.4516 0.135353 18.5608 0.173544C19.9924 0.188593 21.424 0.202281 22.8557 0.21456C26.3619 0.247604 29.8675 0.299372 33.3733 0.361044C33.8683 6.30104 33.8683 6.30104 34.3733 12.361C35.3304 11.1874 35.3304 11.1874 36.3069 9.98995C37.1331 8.97804 37.9594 7.96612 38.8108 6.92354C39.6345 5.91421 40.4582 4.90487 41.3069 3.86495C43.3733 1.36104 43.3733 1.36104 44.3733 0.361044C47.3913 0.259907 50.3861 0.221355 53.4045 0.228232C54.3108 0.227275 55.217 0.226318 56.1507 0.225332C58.0708 0.22465 59.9908 0.226505 61.9109 0.230673C64.8606 0.236021 67.8102 0.230728 70.76 0.224325C72.6207 0.224986 74.4813 0.226267 76.342 0.228232C77.2305 0.226207 78.1191 0.224183 79.0345 0.222097C85.2583 0.246094 85.2583 0.246094 86.3733 1.36104C86.9111 4.01101 86.7981 5.70565 85.3117 7.99874C83.764 9.88669 82.1525 11.6907 80.4983 13.486C79.6134 14.4752 79.6134 14.4752 78.7107 15.4843C76.9434 17.4544 75.1603 19.409 73.3733 21.361C72.4246 22.4086 71.4767 23.4567 70.5295 24.5056C68.8898 26.3148 67.2468 28.121 65.5998 29.9235C63.5143 32.2066 61.4334 34.4925 59.3733 36.7985C58.5689 37.6938 58.5689 37.6938 57.7483 38.6071C56.3134 40.4374 55.3828 42.2732 54.3733 44.361C54.7502 44.8184 55.1272 45.2758 55.5156 45.747C62.1203 53.7613 68.7248 61.7756 75.2951 69.8181C76.7413 71.5877 78.1894 73.3558 79.6389 75.1228C81.1475 76.9624 82.6529 78.8048 84.1545 80.6501C85.6607 82.4904 87.1821 84.3182 88.717 86.1345C89.4492 87.0136 90.1814 87.8928 90.9358 88.7985C91.597 89.581 92.2583 90.3635 92.9397 91.1696C94.3733 93.361 94.3733 93.361 94.3733 97.361C86.6687 97.4627 78.9643 97.5326 71.2592 97.5808C68.6394 97.6009 66.0196 97.6281 63.3999 97.6628C59.6292 97.7114 55.8591 97.734 52.0881 97.7517C50.9212 97.7723 49.7542 97.793 48.552 97.8142C41.9097 97.8161 37.7532 97.3691 32.3733 93.361C30.299 91.1775 30.299 91.1775 28.6858 88.9235C28.1456 88.1823 27.6055 87.4411 27.049 86.6775C26.496 85.913 25.943 85.1486 25.3733 84.361C24.0477 82.6882 22.7162 81.02 21.3733 79.361C20.9649 79.7997 20.5565 80.2384 20.1357 80.6904C18.278 82.6853 16.4194 84.6794 14.5608 86.6735C13.5969 87.709 13.5969 87.709 12.6135 88.7653C11.9915 89.4324 11.3695 90.0995 10.7287 90.7868C10.1579 91.3995 9.5871 92.0122 8.99899 92.6435C8.19426 93.4937 8.19426 93.4937 7.37326 94.361C6.89155 94.9298 6.40985 95.4985 5.91354 96.0844C4.37326 97.361 4.37326 97.361 0.37326 97.361C0.303829 85.1568 0.250484 72.9526 0.217824 60.7482C0.202151 55.0816 0.180882 49.4151 0.146942 43.7485C0.114408 38.2826 0.0964199 32.8168 0.0886288 27.3508C0.0830746 25.2627 0.072229 23.1747 0.0560703 21.0867C0.0343749 18.1678 0.0312903 15.2495 0.0326843 12.3305C0.0218985 11.4623 0.0111127 10.5942 0 9.69967C0.0305728 3.80561 0.0305728 3.80561 1.7024 1.63674C4.38921 -0.414633 6.91151 0.0260851 10.2287 0.0680753Z" fill="white"/>
<path d="M182.375 30.3613C194.375 30.3613 194.375 30.3613 197.953 33.8613C198.887 35.3347 199.778 36.8365 200.625 38.3613C201.331 39.506 201.331 39.506 202.051 40.6738C203.198 42.5464 204.292 44.4511 205.375 46.3613C205.705 41.0813 206.035 35.8013 206.375 30.3613C210.005 30.3613 213.635 30.3613 217.375 30.3613C217.375 42.2413 217.375 54.1213 217.375 66.3613C206.375 66.3613 206.375 66.3613 203.656 64.1309C203.068 63.155 202.481 62.1792 201.875 61.1738C201.267 60.2109 200.658 59.248 200.031 58.2559C199.485 57.3007 198.938 56.3455 198.375 55.3613C197.385 53.7113 196.395 52.0613 195.375 50.3613C195.045 55.6413 194.715 60.9213 194.375 66.3613C190.415 66.3613 186.455 66.3613 182.375 66.3613C182.375 54.4813 182.375 42.6013 182.375 30.3613Z" fill="white"/>
<path d="M83.375 30.3613C87.335 30.3613 91.295 30.3613 95.375 30.3613C95.705 33.9913 96.035 37.6213 96.375 41.3613C96.8391 40.5673 97.3031 39.7732 97.7812 38.9551C103.216 30.9247 103.216 30.9247 107.372 29.8403C112.077 29.3848 116.696 29.7929 121.375 30.3613C117.987 35.0529 114.593 39.3913 110.375 43.3613C112.101 48.3223 114.805 52.634 117.5 57.1113C118.421 58.6466 119.341 60.183 120.258 61.7207C120.664 62.3958 121.07 63.071 121.489 63.7666C122.375 65.3613 122.375 65.3613 122.375 66.3613C117.425 66.3613 112.475 66.3613 107.375 66.3613C105.065 62.0713 102.755 57.7813 100.375 53.3613C96.4807 57.7989 96.4807 57.7989 95.625 62.6738C95.5425 63.8907 95.46 65.1076 95.375 66.3613C91.415 66.3613 87.455 66.3613 83.375 66.3613C83.375 54.4813 83.375 42.6013 83.375 30.3613Z" fill="white"/>
<path d="M143.375 30.3613C148.325 30.3613 153.275 30.3613 158.375 30.3613C160.09 35.0039 161.799 39.6486 163.502 44.2957C164.082 45.8764 164.664 47.4565 165.248 49.0359C166.087 51.3055 166.919 53.5773 167.75 55.8496C168.012 56.556 168.275 57.2623 168.545 57.9901C169.612 60.922 170.375 63.2148 170.375 66.3613C166.415 66.3613 162.455 66.3613 158.375 66.3613C157.715 64.7113 157.055 63.0613 156.375 61.3613C152.415 61.0313 148.455 60.7013 144.375 60.3613C144.045 62.3413 143.715 64.3213 143.375 66.3613C139.415 66.3613 135.455 66.3613 131.375 66.3613C132.232 62.0754 133.404 58.1778 134.879 54.0918C135.243 53.0703 135.243 53.0703 135.614 52.0282C136.386 49.8672 137.161 47.708 137.938 45.5488C138.463 44.0782 138.989 42.6075 139.514 41.1367C140.797 37.5434 142.086 33.9525 143.375 30.3613ZM150.375 41.3613C149.385 44.6613 148.395 47.9613 147.375 51.3613C149.685 51.3613 151.995 51.3613 154.375 51.3613C153.385 48.0613 152.395 44.7613 151.375 41.3613C151.045 41.3613 150.715 41.3613 150.375 41.3613Z" fill="white"/>
<path d="M247.375 30.3613C251.335 30.3613 255.295 30.3613 259.375 30.3613C259.429 34.7573 259.469 39.1527 259.5 43.5488C259.517 44.7947 259.534 46.0406 259.551 47.3242C259.557 48.5263 259.564 49.7283 259.57 50.9668C259.581 52.0718 259.591 53.1767 259.602 54.3152C259.257 58.9411 257.995 61.6074 255.062 65.1738C251.02 68.3461 246.423 67.8765 241.496 67.8301C237.26 67.1939 234.58 65.6092 231.625 62.5488C230.082 59.848 229.724 57.4315 229.375 54.3613C233.335 54.0313 237.295 53.7013 241.375 53.3613C242.035 55.0113 242.695 56.6613 243.375 58.3613C244.365 58.0313 245.355 57.7013 246.375 57.3613C246.705 48.4513 247.035 39.5413 247.375 30.3613Z" fill="white"/>
<path d="M276.375 30.3613C280.335 30.3613 284.295 30.3613 288.375 30.3613C288.375 42.2413 288.375 54.1213 288.375 66.3613C284.415 66.3613 280.455 66.3613 276.375 66.3613C276.375 54.4813 276.375 42.6013 276.375 30.3613Z" fill="white"/>
</svg>
