<svg width="175" height="173" viewBox="0 0 175 173" fill="none" xmlns="http://www.w3.org/2000/svg">
<path fill-rule="evenodd" clip-rule="evenodd" d="M169.073 83.1878C176.912 54.3778 169.126 0.910945 104.647 22.1582C74.7517 32.0095 63.1062 -7.31383 27.8584 14.6267C7.30743 35.2467 41.0511 67.1487 19.0645 72.5719C-11.8999 81.5556 7.77552 128.207 37.3553 145.867C71.8197 166.445 104.396 176.274 120.476 161.23C130.111 152.209 117.007 133.843 135.679 120.794C149.639 111.037 164.125 101.364 169.073 83.1878Z" fill="#FCD0D0"/>
<path fill-rule="evenodd" clip-rule="evenodd" d="M24.1524 35.251C24.1172 37.6557 22.4641 125.739 22.8794 138.026C22.9088 138.847 24.3404 138.823 25.1611 138.892C31.7339 139.428 60.8711 139.112 90.1355 139.115C120.748 139.122 150.178 138.922 150.846 138.01C152.238 136.105 149.428 36.3351 149.428 36.3351L24.1544 35.251H24.1524Z" fill="#D40C0C"/>
<path fill-rule="evenodd" clip-rule="evenodd" d="M32.9251 75.9798C32.9251 75.9798 31.6775 139.108 32.5941 139.108C33.92 139.108 61.6157 139.392 63.0592 139.108C63.7956 138.963 63.3275 74.7812 63.3275 74.7812L32.9251 75.9798Z" fill="#3B646E"/>
<path fill-rule="evenodd" clip-rule="evenodd" d="M36.5577 83.8726C36.1071 90.2445 36.6555 105.741 36.7064 106.562C36.7554 107.385 59.9347 106.756 59.9347 106.756L60.0639 81.2568C60.0639 81.2568 44.1176 80.8058 38.1167 80.9742C36.7143 81.0129 36.7476 81.1678 36.5577 83.8726ZM36.3206 109.999C36.3206 109.999 35.4766 131.649 36.2326 132.053C36.9885 132.46 59.5117 132.243 59.5117 132.243L60.0698 110.142L36.3206 109.999Z" fill="#FDEEED"/>
<path fill-rule="evenodd" clip-rule="evenodd" d="M69.4063 75.8135C69.3965 76.4622 69.1457 88.2184 69.0244 100.01C68.899 112.18 68.9147 124.392 69.369 124.893C69.8097 125.377 87.6382 125.039 105.69 124.988C124.222 124.94 142.99 125.171 143.427 124.761C143.884 124.331 143.47 110.841 143.434 97.9864C143.399 86.5998 143.767 75.647 143.767 75.647C143.767 75.647 84.3009 74.2879 79.9157 75.099C75.5287 75.9064 69.4063 75.8135 69.4063 75.8135Z" fill="white"/>
<path fill-rule="evenodd" clip-rule="evenodd" d="M73.4245 76.8449C72.7331 77.993 72.3002 121.09 72.8663 121.787C73.4304 122.484 138.547 122.685 139.405 121.578C140.26 120.472 140.038 75.9059 139.416 75.5225C138.794 75.1372 74.1177 75.6871 73.4245 76.8429" fill="#FDEEED"/>
<path fill-rule="evenodd" clip-rule="evenodd" d="M79.6 117.11L81.9836 117.15L81.9445 122.165L84.3259 122.203L84.3651 117.188L93.4998 117.332L93.3823 122.235L95.5621 122.213L95.6248 117.367L98.2649 117.405L97.8811 114.553L79.649 114.055L79.6 117.11ZM102.045 114.41L99.8924 122.325L101.712 122.356L103.823 114.223L102.045 114.41ZM74.5039 114.02L76.3489 122.063L78.1155 122.021L76.2842 113.508L74.5039 114.02ZM133.225 117.164L130.868 117.126L130.782 122.077L128.429 122.038L128.515 117.089L119.49 116.946L119.301 122.211L117.2 122.179L117.392 116.913L114.781 116.875L115.249 114.094L133.267 114.172L133.225 117.164ZM112.312 114.034L114.524 122.276L112.609 122.302L110.47 114.121L112.312 114.034ZM137.855 114.566L135.728 122.011L133.916 121.984L136.114 114.025L137.855 114.566Z" fill="#F0C4C1"/>
<path fill-rule="evenodd" clip-rule="evenodd" d="M22.0819 32.8371C21.0399 33.0598 21.3572 38.0008 22.0407 38.756C22.7203 39.511 150.267 38.7617 150.904 38.1092C151.545 37.4529 151.431 33.3986 151.245 32.5195C151.06 31.6444 22.7301 32.6996 22.0819 32.839" fill="#FF5E3E"/>
<path fill-rule="evenodd" clip-rule="evenodd" d="M24.0898 38.8967C39.4194 39.3711 136.584 38.796 149.483 38.2249L149.431 36.3332L24.1545 35.251C24.1526 35.5143 24.1271 36.7999 24.0898 38.8967Z" fill="#DA260D"/>
<path fill-rule="evenodd" clip-rule="evenodd" d="M57.5585 105.217C57.5585 105.217 57.0708 113.329 57.3626 113.907C57.6563 114.488 62.0533 114.294 62.0533 114.294C62.0533 114.294 62.0533 105.023 61.8575 105.023C61.6616 105.023 57.5585 105.217 57.5585 105.217Z" fill="#C7C6B5"/>
<path fill-rule="evenodd" clip-rule="evenodd" d="M73.1875 75.2761L73.2853 94.657L139.817 95.751L139.229 71.123L73.1875 75.2761Z" fill="#F0C4C1"/>
<path fill-rule="evenodd" clip-rule="evenodd" d="M105.523 76.0498V124.143L108.749 123.567L109.043 76.0498H105.523Z" fill="white"/>
<path fill-rule="evenodd" clip-rule="evenodd" d="M16.7227 69.9925L16.7833 73.3633C16.8264 75.5589 18.17 77.6345 20.2931 78.287C20.9003 78.4748 21.576 78.558 22.3202 78.4748C24.1906 78.2598 27.2087 75.7757 27.2087 75.7757C27.2087 75.7757 28.7108 78.6451 31.1845 78.6838C33.6621 78.7226 36.4999 75.6015 36.4999 75.6015C36.4999 75.6015 38.6035 79.4312 41.3885 79.4738C44.1735 79.5164 48.2571 75.7854 48.2571 75.7854C48.2571 75.7854 49.1383 78.9607 51.9175 79.3189C54.6987 79.679 57.2232 76.5561 57.2232 76.5561C57.2232 76.5561 59.2797 79.8185 61.9824 79.7507C64.3445 79.6906 67.7602 75.7699 67.7602 75.7699C67.7602 75.7699 70.4904 79.2899 72.3471 79.3189C74.2038 79.348 77.6586 76.2385 77.6586 76.2385C77.6586 76.2385 78.5262 80.0469 81.6246 79.7797C84.727 79.5105 87.8685 76.3972 87.8685 76.3972C87.8685 76.3972 90.5967 80.2347 92.4573 79.9462C94.3179 79.6597 98.0822 76.5561 98.0822 76.5561C98.0822 76.5561 102.211 80.1011 104.839 79.8223C106.986 79.5939 108.713 77.7196 109.667 76.4205C110.525 77.3692 112.176 78.7381 114.489 78.4728C116.359 78.2599 119.378 75.7757 119.378 75.7757C119.378 75.7757 120.88 78.6451 123.355 78.6838C125.832 78.7226 128.669 75.6015 128.669 75.6015C128.669 75.6015 130.772 79.4312 133.557 79.4738C136.342 79.5164 140.428 75.7854 140.428 75.7854C140.428 75.7854 141.307 78.9607 144.087 79.3189C146.867 79.679 149.392 76.5561 149.392 76.5561C149.392 76.5561 150.944 79.5126 153.648 79.4447C156.009 79.3866 157.538 78.0217 157.392 75.4563C157.3 73.8377 156.215 67.2373 156.215 67.2373L16.7227 69.9925Z" fill="#74A3A5"/>
<path fill-rule="evenodd" clip-rule="evenodd" d="M20.2659 50.5555C19.8076 51.388 16.0413 70.2849 16.9991 70.8755C17.9529 71.4659 25.1995 70.8464 37.1446 70.7418C58.1205 70.5618 88.7285 70.5056 98.5251 70.7302C115.672 71.1233 155.973 70.9025 156.363 70.0042C156.754 69.1019 153.876 50.4741 153.126 49.9263C152.373 49.3764 132.518 49.6764 132.518 49.6764L49.6479 50.2941C49.6479 50.2941 20.7242 49.721 20.2659 50.5555Z" fill="#74A3A5"/>
<path fill-rule="evenodd" clip-rule="evenodd" d="M16.8438 69.9905C16.8419 70.4881 16.8849 70.8076 16.9967 70.8754C17.9544 71.4658 25.1989 70.8463 37.144 70.7437C58.1201 70.5597 88.728 70.5055 98.5246 70.7301C115.67 71.1213 155.974 70.9024 156.36 70.0022C156.447 69.8066 156.376 68.7591 156.204 67.2373L16.8459 69.9905H16.8438Z" fill="#528C8F"/>
</svg>
