<svg width="146" height="24" viewBox="0 0 146 24" fill="none" xmlns="http://www.w3.org/2000/svg">
<g clip-path="url(#clip0_3136_5671)">
<path d="M67.713 9.66333C65.5609 9.66333 64.0343 11.3473 64.0343 13.9322V23.4142H60.7491V6.72432H63.995V8.76235C64.3953 8.08687 64.9691 7.53076 65.6567 7.15166C66.3444 6.77256 67.1209 6.58426 67.9058 6.60629H69.0861V9.66333H67.713ZM58.4789 15.0692C58.4789 10.0922 54.9379 6.37022 50.1458 6.37022C49.0135 6.37791 47.894 6.6094 46.8515 7.05138C45.809 7.49336 44.8643 8.1371 44.0715 8.94557C43.2788 9.75404 42.6537 10.7113 42.2323 11.7622C41.8109 12.8132 41.6014 13.937 41.616 15.0692C41.616 20.0424 45.452 23.8037 50.4566 23.8037C51.8546 23.8301 53.2384 23.52 54.4914 22.8997C55.7445 22.2793 56.83 21.3668 57.6566 20.2391L55.2723 18.4922C54.7253 19.2556 54.0016 19.8752 53.1629 20.298C52.3243 20.7207 51.3957 20.9341 50.4566 20.9197C49.1191 20.9134 47.8282 20.4282 46.8177 19.5519C45.8072 18.6757 45.144 17.4664 44.9484 16.1433H58.4868L58.4789 15.0692ZM45.0192 13.5387C45.6055 10.9932 47.6396 9.26989 50.1064 9.26989C52.5733 9.26989 54.6035 10.9932 55.1543 13.5387H45.0192ZM31.2094 6.37022C30.1115 6.37114 29.0247 6.58962 28.0117 7.01304C26.9987 7.43646 26.0797 8.05643 25.3078 8.83711V0.492188H22.0225V23.4142H25.2684V21.2974C26.8409 22.8882 28.9805 23.7896 31.2173 23.8037C32.3775 23.8283 33.5311 23.6211 34.6102 23.1941C35.6894 22.7671 36.6724 22.129 37.5017 21.3171C38.331 20.5053 38.9898 19.536 39.4397 18.4662C39.8895 17.3963 40.1212 16.2475 40.1212 15.0869C40.1212 13.9264 39.8895 12.7775 39.4397 11.7077C38.9898 10.6379 38.331 9.66863 37.5017 8.85676C36.6724 8.0449 35.6894 7.40677 34.6102 6.97979C33.5311 6.55281 32.3775 6.34557 31.2173 6.37022H31.2094ZM30.9733 20.8686C29.8282 20.874 28.7073 20.5392 27.7528 19.9066C26.7983 19.2739 26.0532 18.372 25.6121 17.3153C25.171 16.2585 25.0538 15.0946 25.2753 13.9711C25.4968 12.8476 26.047 11.8152 26.8562 11.0049C27.6654 10.1947 28.697 9.643 29.8202 9.41998C30.9434 9.19695 32.1075 9.3126 33.1648 9.75225C34.2222 10.1919 35.1251 10.9357 35.7591 11.8894C36.393 12.843 36.7293 13.9635 36.7255 15.1086C36.7265 15.8639 36.5784 16.612 36.2896 17.3099C36.0008 18.0078 35.577 18.6418 35.0425 19.1755C34.5081 19.7092 33.8735 20.1321 33.1752 20.42C32.4769 20.7078 31.7286 20.8549 30.9733 20.8528V20.8686ZM9.92415 20.7112C13.0953 20.7112 15.5583 18.2797 15.5583 14.6364V0.492188H18.9615V23.4142H15.5976V21.2463C14.8117 22.0585 13.8691 22.7029 12.827 23.1405C11.7849 23.578 10.6649 23.7996 9.53465 23.7919C4.64415 23.7919 0.878906 20.2273 0.878906 14.8214V0.492188H4.34514V14.6561C4.34514 18.3191 6.70579 20.7112 9.92415 20.7112Z" fill="white"/>
<path d="M77.2578 0.492188H93.3378V4.42661H81.6014V10.0135H93.0112V13.8142H81.6014V19.4955H93.3378V23.4299H77.2578V0.492188ZM137.746 23.843C142.676 23.843 145.453 21.4824 145.453 18.2404C145.453 15.9309 143.809 14.2076 140.366 13.4601L136.727 12.7164C134.614 12.323 133.949 11.9296 133.949 11.1427C133.949 10.1237 134.968 9.49809 136.845 9.49809C138.879 9.49809 140.386 10.045 140.779 11.9256H145.044C144.812 8.38465 142.266 6.0476 137.104 6.0476C132.643 6.0476 129.511 7.88891 129.511 11.4574C129.511 13.9243 131.234 15.5296 134.952 16.3125L139.02 17.2528C140.626 17.5676 141.055 18.0004 141.055 18.6653C141.055 19.7237 139.843 20.3886 137.883 20.3886C135.42 20.3886 134.012 19.8417 133.465 17.961H129.176C129.802 21.4942 132.422 23.843 137.746 23.843ZM127.937 23.4142H123.322C120.426 23.4142 118.821 21.6122 118.821 19.3381V10.3283H115.575V6.48825H118.837V1.66858H123.125V6.48825H127.937V10.3283H123.125V18.2404C123.125 19.1414 123.751 19.5742 124.731 19.5742H127.937V23.4142ZM109.445 6.49612V8.02268C107.935 6.7463 106.021 6.04895 104.043 6.05547C102.86 6.03057 101.683 6.24221 100.582 6.67798C99.4813 7.11375 98.4785 7.76488 97.6326 8.59321C96.7866 9.42153 96.1146 10.4104 95.6557 11.5018C95.1969 12.5932 94.9606 13.7653 94.9606 14.9492C94.9606 16.1332 95.1969 17.3052 95.6557 18.3967C96.1146 19.4881 96.7866 20.4769 97.6326 21.3053C98.4785 22.1336 99.4813 22.7847 100.582 23.2205C101.683 23.6563 102.86 23.8679 104.043 23.843C106.021 23.8516 107.936 23.154 109.445 21.8758V23.4063H113.722V6.48825L109.445 6.49612ZM104.397 20.1289C103.372 20.1406 102.365 19.8471 101.507 19.2855C100.648 18.724 99.9758 17.9199 99.5753 16.9754C99.1747 16.0309 99.0641 14.9886 99.2573 13.981C99.4505 12.9734 99.939 12.046 100.661 11.3167C101.382 10.5874 102.304 10.089 103.31 9.88503C104.315 9.68102 105.358 9.78053 106.307 10.1709C107.256 10.5613 108.067 11.225 108.638 12.0776C109.209 12.9301 109.513 13.9331 109.512 14.9591C109.518 15.6354 109.391 16.3062 109.136 16.9327C108.881 17.5593 108.505 18.129 108.028 18.6091C107.552 19.0892 106.985 19.47 106.36 19.7295C105.736 19.989 105.066 20.1221 104.39 20.121L104.397 20.1289Z" fill="white"/>
</g>
<defs>
<clipPath id="clip0_3136_5671">
<rect width="146" height="24" fill="white"/>
</clipPath>
</defs>
</svg>
